<svg width="1112" height="101" viewBox="0 0 1112 101" fill="none" xmlns="http://www.w3.org/2000/svg">
<mask id="path-1-outside-1_11_22" maskUnits="userSpaceOnUse" x="-1" y="-2" width="1114" height="105" fill="black">
<rect fill="white" x="-1" y="-2" width="1114" height="105"/>
<path d="M0.3885 87.296C0.3885 84.0533 1.5405 81.28 3.8445 78.976C6.1485 76.672 9.00717 75.52 12.4205 75.52C16.0045 75.52 18.9058 76.672 21.1245 78.976C23.3432 81.28 24.4525 84.0533 24.4525 87.296C24.4525 90.5387 23.3432 93.312 21.1245 95.616C18.9058 97.92 16.0045 99.072 12.4205 99.072C9.00717 99.072 6.1485 97.92 3.8445 95.616C1.5405 93.312 0.3885 90.5387 0.3885 87.296ZM42.5345 6.39999H64.1665V77.44H100.135V96H42.5345V6.39999ZM110.16 6.39999H132.176V96H110.16V6.39999ZM212.984 6.39999H233.848V100.48L171.896 45.568V96H151.16V1.92L212.984 56.832V6.39999ZM266.865 78.72L268.401 62.208H312.817L314.225 78.72H266.865ZM290.289 39.296L277.745 68.224L278.769 72.96L267.633 96H243.184L290.289 0.767998L337.521 96H312.945L302.193 73.856L302.961 68.352L290.289 39.296ZM385.285 6.39999H407.685V96H385.285V6.39999ZM438.149 6.39999H463.493L427.141 48.384L465.413 96H439.173L401.413 49.024L438.149 6.39999ZM486.202 51.2C486.202 56.4907 487.226 61.184 489.274 65.28C491.407 69.2907 494.351 72.448 498.106 74.752C501.946 77.056 506.426 78.208 511.546 78.208C516.58 78.208 520.975 77.056 524.729 74.752C528.57 72.448 531.514 69.2907 533.562 65.28C535.695 61.184 536.762 56.4907 536.762 51.2C536.762 45.9093 535.738 41.2587 533.69 37.248C531.642 33.152 528.74 29.952 524.986 27.648C521.231 25.344 516.751 24.192 511.546 24.192C506.426 24.192 501.946 25.344 498.106 27.648C494.351 29.952 491.407 33.152 489.274 37.248C487.226 41.2587 486.202 45.9093 486.202 51.2ZM463.29 51.2C463.29 44.288 464.484 37.9733 466.874 32.256C469.348 26.5387 472.762 21.5893 477.114 17.408C481.466 13.2267 486.586 10.0267 492.474 7.808C498.362 5.504 504.719 4.352 511.546 4.352C518.458 4.352 524.815 5.504 530.618 7.808C536.506 10.0267 541.626 13.2267 545.978 17.408C550.33 21.5893 553.7 26.5387 556.09 32.256C558.479 37.9733 559.674 44.288 559.674 51.2C559.674 58.112 558.479 64.4693 556.09 70.272C553.786 76.0747 550.458 81.1093 546.106 85.376C541.839 89.6427 536.762 92.9707 530.874 95.36C524.986 97.664 518.543 98.816 511.546 98.816C504.463 98.816 497.978 97.664 492.09 95.36C486.202 92.9707 481.082 89.6427 476.73 85.376C472.463 81.1093 469.135 76.0747 466.746 70.272C464.442 64.4693 463.29 58.112 463.29 51.2ZM583.391 64.512C585.183 67.7547 587.188 70.5707 589.407 72.96C591.711 75.3493 594.185 77.184 596.831 78.464C599.561 79.744 602.42 80.384 605.407 80.384C608.564 80.384 611.167 79.616 613.215 78.08C615.263 76.4587 616.287 74.2827 616.287 71.552C616.287 69.248 615.689 67.4133 614.495 66.048C613.3 64.5973 611.38 63.232 608.735 61.952C606.089 60.672 602.591 59.2213 598.239 57.6C596.105 56.832 593.631 55.7653 590.815 54.4C588.084 53.0347 585.481 51.2853 583.007 49.152C580.532 46.9333 578.484 44.288 576.863 41.216C575.241 38.0587 574.431 34.2613 574.431 29.824C574.431 24.5333 575.796 19.968 578.527 16.128C581.343 12.288 585.097 9.38666 589.791 7.424C594.569 5.376 599.86 4.352 605.663 4.352C611.636 4.352 616.799 5.33333 621.151 7.296C625.588 9.25866 629.257 11.7333 632.159 14.72C635.06 17.7067 637.279 20.736 638.815 23.808L622.303 33.024C621.023 30.8907 619.529 29.056 617.823 27.52C616.201 25.8987 614.367 24.6613 612.319 23.808C610.356 22.8693 608.223 22.4 605.919 22.4C602.847 22.4 600.5 23.0827 598.879 24.448C597.257 25.728 596.447 27.3493 596.447 29.312C596.447 31.36 597.215 33.152 598.751 34.688C600.372 36.224 602.633 37.632 605.535 38.912C608.521 40.192 612.105 41.5573 616.287 43.008C619.444 44.2027 622.388 45.6107 625.119 47.232C627.849 48.768 630.239 50.6453 632.287 52.864C634.42 55.0827 636.084 57.6427 637.279 60.544C638.473 63.4453 639.071 66.7733 639.071 70.528C639.071 75.0507 638.132 79.104 636.255 82.688C634.463 86.1867 631.988 89.1307 628.831 91.52C625.759 93.9093 622.217 95.7013 618.207 96.896C614.281 98.176 610.228 98.816 606.047 98.816C600.244 98.816 594.825 97.792 589.791 95.744C584.841 93.6107 580.532 90.752 576.863 87.168C573.193 83.584 570.335 79.6587 568.286 75.392L583.391 64.512ZM644.575 25.728V6.39999H715.487V25.728H690.783V96H669.151V25.728H644.575ZM739.621 96V78.208H784.805V96H739.621ZM739.621 24.192V6.39999H784.805V24.192H739.621ZM739.621 57.6V40.192H782.245V57.6H739.621ZM725.285 6.39999H746.021V96H725.285V6.39999ZM864.234 6.39999H885.098V100.48L823.146 45.568V96H802.41V1.92L864.234 56.832V6.39999ZM904.035 6.39999H926.435V96H904.035V6.39999ZM956.899 6.39999H982.243L945.891 48.384L984.163 96H957.923L920.163 49.024L956.899 6.39999ZM1004.95 51.2C1004.95 56.4907 1005.98 61.184 1008.02 65.28C1010.16 69.2907 1013.1 72.448 1016.86 74.752C1020.7 77.056 1025.18 78.208 1030.3 78.208C1035.33 78.208 1039.72 77.056 1043.48 74.752C1047.32 72.448 1050.26 69.2907 1052.31 65.28C1054.44 61.184 1055.51 56.4907 1055.51 51.2C1055.51 45.9093 1054.49 41.2587 1052.44 37.248C1050.39 33.152 1047.49 29.952 1043.74 27.648C1039.98 25.344 1035.5 24.192 1030.3 24.192C1025.18 24.192 1020.7 25.344 1016.86 27.648C1013.1 29.952 1010.16 33.152 1008.02 37.248C1005.98 41.2587 1004.95 45.9093 1004.95 51.2ZM982.04 51.2C982.04 44.288 983.234 37.9733 985.624 32.256C988.098 26.5387 991.512 21.5893 995.864 17.408C1000.22 13.2267 1005.34 10.0267 1011.22 7.808C1017.11 5.504 1023.47 4.352 1030.3 4.352C1037.21 4.352 1043.56 5.504 1049.37 7.808C1055.26 10.0267 1060.38 13.2267 1064.73 17.408C1069.08 21.5893 1072.45 26.5387 1074.84 32.256C1077.23 37.9733 1078.42 44.288 1078.42 51.2C1078.42 58.112 1077.23 64.4693 1074.84 70.272C1072.54 76.0747 1069.21 81.1093 1064.86 85.376C1060.59 89.6427 1055.51 92.9707 1049.62 95.36C1043.74 97.664 1037.29 98.816 1030.3 98.816C1023.21 98.816 1016.73 97.664 1010.84 95.36C1004.95 92.9707 999.832 89.6427 995.48 85.376C991.213 81.1093 987.885 76.0747 985.496 70.272C983.192 64.4693 982.04 58.112 982.04 51.2ZM1087.51 87.296C1087.51 84.0533 1088.67 81.28 1090.97 78.976C1093.27 76.672 1096.13 75.52 1099.55 75.52C1103.13 75.52 1106.03 76.672 1108.25 78.976C1110.47 81.28 1111.58 84.0533 1111.58 87.296C1111.58 90.5387 1110.47 93.312 1108.25 95.616C1106.03 97.92 1103.13 99.072 1099.55 99.072C1096.13 99.072 1093.27 97.92 1090.97 95.616C1088.67 93.312 1087.51 90.5387 1087.51 87.296Z"/>
</mask>
<path d="M3.8445 78.976L4.55161 79.6831L4.55161 79.6831L3.8445 78.976ZM21.1245 78.976L20.4042 79.6696L20.4042 79.6696L21.1245 78.976ZM21.1245 95.616L21.8448 96.3096L21.1245 95.616ZM3.8445 95.616L3.13739 96.3231L3.8445 95.616ZM1.3885 87.296C1.3885 84.32 2.43412 81.8006 4.55161 79.6831L3.13739 78.2689C0.646878 80.7594 -0.6115 83.7867 -0.6115 87.296H1.3885ZM4.55161 79.6831C6.65837 77.5763 9.25834 76.52 12.4205 76.52V74.52C8.756 74.52 5.63864 75.7677 3.13739 78.2689L4.55161 79.6831ZM12.4205 76.52C15.7687 76.52 18.3976 77.5859 20.4042 79.6696L21.8448 78.2824C19.4141 75.7581 16.2403 74.52 12.4205 74.52V76.52ZM20.4042 79.6696C22.4407 81.7845 23.4525 84.308 23.4525 87.296H25.4525C25.4525 83.7986 24.2457 80.7755 21.8448 78.2824L20.4042 79.6696ZM23.4525 87.296C23.4525 90.284 22.4407 92.8075 20.4042 94.9224L21.8448 96.3096C24.2457 93.8165 25.4525 90.7934 25.4525 87.296H23.4525ZM20.4042 94.9224C18.3976 97.0061 15.7687 98.072 12.4205 98.072V100.072C16.2403 100.072 19.4141 98.8339 21.8448 96.3096L20.4042 94.9224ZM12.4205 98.072C9.25834 98.072 6.65837 97.0157 4.55161 94.9089L3.13739 96.3231C5.63864 98.8243 8.756 100.072 12.4205 100.072V98.072ZM4.55161 94.9089C2.43412 92.7914 1.3885 90.272 1.3885 87.296H-0.6115C-0.6115 90.8053 0.646878 93.8326 3.13739 96.3231L4.55161 94.9089ZM42.5345 6.39999V5.39999H41.5345V6.39999H42.5345ZM64.1665 6.39999H65.1665V5.39999H64.1665V6.39999ZM64.1665 77.44H63.1665V78.44H64.1665V77.44ZM100.135 77.44H101.135V76.44H100.135V77.44ZM100.135 96V97H101.135V96H100.135ZM42.5345 96H41.5345V97H42.5345V96ZM42.5345 7.39999H64.1665V5.39999H42.5345V7.39999ZM63.1665 6.39999V77.44H65.1665V6.39999H63.1665ZM64.1665 78.44H100.135V76.44H64.1665V78.44ZM99.1345 77.44V96H101.135V77.44H99.1345ZM100.135 95H42.5345V97H100.135V95ZM43.5345 96V6.39999H41.5345V96H43.5345ZM110.16 6.39999V5.39999H109.16V6.39999H110.16ZM132.176 6.39999H133.176V5.39999H132.176V6.39999ZM132.176 96V97H133.176V96H132.176ZM110.16 96H109.16V97H110.16V96ZM110.16 7.39999H132.176V5.39999H110.16V7.39999ZM131.176 6.39999V96H133.176V6.39999H131.176ZM132.176 95H110.16V97H132.176V95ZM111.16 96V6.39999H109.16V96H111.16ZM212.984 6.39999V5.39999H211.984V6.39999H212.984ZM233.848 6.39999H234.848V5.39999H233.848V6.39999ZM233.848 100.48L233.184 101.228L234.848 102.703V100.48H233.848ZM171.896 45.568L172.559 44.8197L170.896 43.3454V45.568H171.896ZM171.896 96V97H172.896V96H171.896ZM151.16 96H150.16V97H151.16V96ZM151.16 1.92L151.824 1.17233L150.16 -0.305697V1.92H151.16ZM212.984 56.832L212.319 57.5797L213.984 59.0577V56.832H212.984ZM212.984 7.39999H233.848V5.39999H212.984V7.39999ZM232.848 6.39999V100.48H234.848V6.39999H232.848ZM234.511 99.7317L172.559 44.8197L171.232 46.3163L233.184 101.228L234.511 99.7317ZM170.896 45.568V96H172.896V45.568H170.896ZM171.896 95H151.16V97H171.896V95ZM152.16 96V1.92H150.16V96H152.16ZM150.495 2.66766L212.319 57.5797L213.648 56.0843L151.824 1.17233L150.495 2.66766ZM213.984 56.832V6.39999H211.984V56.832H213.984ZM266.865 78.72L265.869 78.6274L265.767 79.72H266.865V78.72ZM268.401 62.208V61.208H267.489L267.405 62.1154L268.401 62.208ZM312.817 62.208L313.813 62.123L313.735 61.208H312.817V62.208ZM314.225 78.72V79.72H315.313L315.221 78.635L314.225 78.72ZM290.289 39.296L291.205 38.8962L290.286 36.7885L289.371 38.8982L290.289 39.296ZM277.745 68.224L276.827 67.8262L276.699 68.1211L276.767 68.4353L277.745 68.224ZM278.769 72.96L279.669 73.3952L279.819 73.0852L279.746 72.7487L278.769 72.96ZM267.633 96V97H268.26L268.533 96.4352L267.633 96ZM243.184 96L242.288 95.5566L241.574 97H243.184V96ZM290.289 0.767998L291.184 0.323676L290.287 -1.48508L289.392 0.324644L290.289 0.767998ZM337.521 96V97H339.133L338.416 95.5557L337.521 96ZM312.945 96L312.045 96.4368L312.318 97H312.945V96ZM302.193 73.856L301.202 73.7178L301.16 74.0191L301.293 74.2928L302.193 73.856ZM302.961 68.352L303.951 68.4902L303.99 68.2108L303.877 67.9522L302.961 68.352ZM267.86 78.8126L269.396 62.3006L267.405 62.1154L265.869 78.6274L267.86 78.8126ZM268.401 63.208H312.817V61.208H268.401V63.208ZM311.82 62.293L313.228 78.805L315.221 78.635L313.813 62.123L311.82 62.293ZM314.225 77.72H266.865V79.72H314.225V77.72ZM289.371 38.8982L276.827 67.8262L278.662 68.6218L291.206 39.6938L289.371 38.8982ZM276.767 68.4353L277.791 73.1713L279.746 72.7487L278.722 68.0127L276.767 68.4353ZM277.868 72.5248L266.732 95.5648L268.533 96.4352L279.669 73.3952L277.868 72.5248ZM267.633 95H243.184V97H267.633V95ZM244.081 96.4434L291.185 1.21135L289.392 0.324644L242.288 95.5566L244.081 96.4434ZM289.393 1.21232L336.625 96.4443L338.416 95.5557L291.184 0.323676L289.393 1.21232ZM337.521 95H312.945V97H337.521V95ZM313.844 95.5632L303.092 73.4192L301.293 74.2928L312.045 96.4368L313.844 95.5632ZM303.183 73.9942L303.951 68.4902L301.97 68.2138L301.202 73.7178L303.183 73.9942ZM303.877 67.9522L291.205 38.8962L289.372 39.6958L302.044 68.7518L303.877 67.9522ZM385.285 6.39999V5.39999H384.285V6.39999H385.285ZM407.685 6.39999H408.685V5.39999H407.685V6.39999ZM407.685 96V97H408.685V96H407.685ZM385.285 96H384.285V97H385.285V96ZM438.149 6.39999V5.39999H437.69L437.391 5.74714L438.149 6.39999ZM463.493 6.39999L464.249 7.05457L465.681 5.39999H463.493V6.39999ZM427.141 48.384L426.385 47.7294L425.838 48.3602L426.361 49.0105L427.141 48.384ZM465.413 96V97H467.499L466.192 95.3735L465.413 96ZM439.173 96L438.393 96.6265L438.693 97H439.173V96ZM401.413 49.024L400.655 48.3711L400.112 49.0017L400.633 49.6505L401.413 49.024ZM385.285 7.39999H407.685V5.39999H385.285V7.39999ZM406.685 6.39999V96H408.685V6.39999H406.685ZM407.685 95H385.285V97H407.685V95ZM386.285 96V6.39999H384.285V96H386.285ZM438.149 7.39999H463.493V5.39999H438.149V7.39999ZM462.737 5.74541L426.385 47.7294L427.896 49.0386L464.249 7.05457L462.737 5.74541ZM426.361 49.0105L464.633 96.6265L466.192 95.3735L427.92 47.7575L426.361 49.0105ZM465.413 95H439.173V97H465.413V95ZM439.952 95.3735L402.192 48.3975L400.633 49.6505L438.393 96.6265L439.952 95.3735ZM402.17 49.6768L438.906 7.05284L437.391 5.74714L400.655 48.3711L402.17 49.6768ZM489.274 65.28L488.379 65.7272L488.385 65.7385L488.391 65.7496L489.274 65.28ZM498.106 74.752L497.582 75.6044L497.591 75.6095L498.106 74.752ZM524.729 74.752L524.215 73.8945L524.206 73.8997L524.729 74.752ZM533.562 65.28L532.675 64.818L532.671 64.8252L533.562 65.28ZM533.69 37.248L532.795 37.6952L532.799 37.7028L533.69 37.248ZM524.986 27.648L525.509 26.7957L525.509 26.7957L524.986 27.648ZM498.106 27.648L497.591 26.7905L497.582 26.7957L498.106 27.648ZM489.274 37.248L488.387 36.786L488.383 36.7932L489.274 37.248ZM466.874 32.256L465.956 31.8587L465.951 31.8704L466.874 32.256ZM477.114 17.408L476.421 16.6869L477.114 17.408ZM492.474 7.808L492.826 8.74384L492.838 8.73924L492.474 7.808ZM530.618 7.808L530.248 8.73741L530.257 8.74066L530.265 8.74377L530.618 7.808ZM556.09 32.256L557.012 31.8704L557.012 31.8704L556.09 32.256ZM556.09 70.272L555.165 69.8912L555.16 69.903L556.09 70.272ZM546.106 85.376L545.405 84.6619L545.398 84.6689L546.106 85.376ZM530.874 95.36L531.238 96.2913L531.25 96.2866L530.874 95.36ZM492.09 95.36L491.713 96.2867L491.725 96.2912L492.09 95.36ZM476.73 85.376L476.022 86.0831L476.029 86.0901L476.73 85.376ZM466.746 70.272L465.816 70.6411L465.821 70.6527L466.746 70.272ZM485.202 51.2C485.202 56.6218 486.252 61.4723 488.379 65.7272L490.168 64.8328C488.199 60.8957 487.202 56.3596 487.202 51.2H485.202ZM488.391 65.7496C490.605 69.9125 493.671 73.2041 497.582 75.6043L498.629 73.8997C495.031 71.6919 492.209 68.6688 490.156 64.8104L488.391 65.7496ZM497.591 75.6095C501.608 78.0195 506.271 79.208 511.546 79.208V77.208C506.58 77.208 502.283 76.0925 498.62 73.8945L497.591 75.6095ZM511.546 79.208C516.738 79.208 521.319 78.0181 525.253 75.6043L524.206 73.8997C520.631 76.0939 516.422 77.208 511.546 77.208V79.208ZM525.244 75.6095C529.246 73.2086 532.319 69.9113 534.452 65.7348L532.671 64.8252C530.708 68.6701 527.893 71.6874 524.215 73.8945L525.244 75.6095ZM534.448 65.7419C536.666 61.4838 537.762 56.6279 537.762 51.2H535.762C535.762 56.3534 534.723 60.8842 532.675 64.8181L534.448 65.7419ZM537.762 51.2C537.762 45.7788 536.712 40.9674 534.58 36.7932L532.799 37.7028C534.763 41.55 535.762 46.0399 535.762 51.2H537.762ZM534.584 36.8008C532.456 32.5446 529.429 29.2014 525.509 26.7957L524.462 28.5003C528.051 30.7026 530.827 33.7593 532.795 37.6952L534.584 36.8008ZM525.509 26.7957C521.57 24.3788 516.902 23.192 511.546 23.192V25.192C516.6 25.192 520.892 26.3092 524.462 28.5003L525.509 26.7957ZM511.546 23.192C506.271 23.192 501.608 24.3805 497.591 26.7905L498.62 28.5055C502.283 26.3075 506.58 25.192 511.546 25.192V23.192ZM497.582 26.7957C493.666 29.1991 490.599 32.5375 488.387 36.7861L490.16 37.7099C492.214 33.7665 495.036 30.7049 498.629 28.5003L497.582 26.7957ZM488.383 36.7932C486.251 40.9674 485.202 45.7788 485.202 51.2H487.202C487.202 46.0399 488.2 41.55 490.164 37.7028L488.383 36.7932ZM464.29 51.2C464.29 44.4051 465.463 38.2234 467.796 32.6416L465.951 31.8704C463.505 37.7232 462.29 44.1709 462.29 51.2H464.29ZM467.791 32.6532C470.215 27.0537 473.553 22.2155 477.806 18.1291L476.421 16.6869C471.97 20.9632 468.481 26.0236 465.956 31.8588L467.791 32.6532ZM477.806 18.1291C482.056 14.0456 487.059 10.9167 492.826 8.74377L492.121 6.87223C486.112 9.13659 480.875 12.4077 476.421 16.6869L477.806 18.1291ZM492.838 8.73924C498.601 6.48418 504.834 5.352 511.546 5.352V3.352C504.604 3.352 498.122 4.52381 492.109 6.87676L492.838 8.73924ZM511.546 5.352C518.345 5.352 524.575 6.48479 530.248 8.73741L530.987 6.87858C525.054 4.5232 518.57 3.352 511.546 3.352V5.352ZM530.265 8.74377C536.032 10.9167 541.035 14.0456 545.285 18.1291L546.67 16.6869C542.216 12.4077 536.979 9.13659 530.97 6.87223L530.265 8.74377ZM545.285 18.1291C549.535 22.213 552.829 27.0472 555.167 32.6416L557.012 31.8704C554.571 26.0301 551.124 20.9657 546.67 16.6869L545.285 18.1291ZM555.167 32.6416C557.5 38.2234 558.674 44.4051 558.674 51.2H560.674C560.674 44.1709 559.458 37.7232 557.012 31.8704L555.167 32.6416ZM558.674 51.2C558.674 57.9947 557.5 64.2211 555.165 69.8912L557.014 70.6527C559.458 64.7176 560.674 58.2293 560.674 51.2H558.674ZM555.16 69.903C552.906 75.5791 549.655 80.4954 545.405 84.6619L546.806 86.0901C551.26 81.7232 554.665 76.5702 557.019 70.641L555.16 69.903ZM545.398 84.6689C541.231 88.836 536.268 92.0916 530.497 94.4334L531.25 96.2866C537.255 93.8497 542.446 90.4493 546.813 86.0831L545.398 84.6689ZM530.509 94.4288C524.749 96.6827 518.431 97.816 511.546 97.816V99.816C518.654 99.816 525.222 98.6453 531.238 96.2912L530.509 94.4288ZM511.546 97.816C504.573 97.816 498.213 96.6822 492.454 94.4288L491.725 96.2912C497.742 98.6458 504.353 99.816 511.546 99.816V97.816ZM492.466 94.4334C486.693 92.091 481.684 88.8334 477.43 84.6619L476.029 86.0901C480.479 90.4519 485.71 93.8504 491.713 96.2866L492.466 94.4334ZM477.437 84.6689C473.267 80.4993 470.011 75.5768 467.67 69.8912L465.821 70.6527C468.258 76.5725 471.659 81.7193 476.022 86.0831L477.437 84.6689ZM467.675 69.903C465.422 64.2297 464.29 57.9992 464.29 51.2H462.29C462.29 58.2248 463.461 64.709 465.816 70.641L467.675 69.903ZM583.391 64.512L584.266 64.0283L583.721 63.0418L582.806 63.7006L583.391 64.512ZM589.407 72.96L588.674 73.6405L588.68 73.6474L588.687 73.6541L589.407 72.96ZM596.831 78.464L596.395 79.3642L596.406 79.3695L596.831 78.464ZM613.215 78.08L613.815 78.88L613.825 78.8722L613.835 78.864L613.215 78.08ZM614.495 66.048L613.723 66.6837L613.732 66.6952L613.742 66.7065L614.495 66.048ZM608.735 61.952L608.299 62.8522L608.299 62.8522L608.735 61.952ZM598.239 57.6L598.588 56.6629L598.577 56.6591L598.239 57.6ZM590.815 54.4L590.367 55.2945L590.378 55.2998L590.815 54.4ZM583.007 49.152L582.339 49.8966L582.346 49.9031L582.354 49.9094L583.007 49.152ZM576.863 41.216L575.973 41.6728L575.978 41.6828L576.863 41.216ZM578.527 16.128L577.72 15.5366L577.716 15.5425L577.712 15.5485L578.527 16.128ZM589.791 7.424L590.176 8.34661L590.184 8.34314L589.791 7.424ZM621.151 7.296L620.739 8.20761L620.746 8.21053L621.151 7.296ZM632.159 14.72L631.441 15.4168L631.441 15.4168L632.159 14.72ZM638.815 23.808L639.302 24.6812L640.136 24.2155L639.709 23.3608L638.815 23.808ZM622.303 33.024L621.445 33.5385L621.944 34.3695L622.79 33.8972L622.303 33.024ZM617.823 27.52L617.115 28.2271L617.134 28.2457L617.154 28.2633L617.823 27.52ZM612.319 23.808L611.887 24.7101L611.91 24.7212L611.934 24.7311L612.319 23.808ZM598.879 24.448L599.498 25.2329L599.511 25.2231L599.523 25.2129L598.879 24.448ZM598.751 34.688L598.043 35.3951L598.053 35.4047L598.063 35.4139L598.751 34.688ZM605.535 38.912L605.131 39.827L605.141 39.8311L605.535 38.912ZM616.287 43.008L616.64 42.0727L616.627 42.0678L616.614 42.0632L616.287 43.008ZM625.119 47.232L624.608 48.0919L624.618 48.0978L624.628 48.1036L625.119 47.232ZM632.287 52.864L631.552 53.5423L631.559 53.5498L631.566 53.5571L632.287 52.864ZM637.279 60.544L636.354 60.9247L636.354 60.9247L637.279 60.544ZM636.255 82.688L635.369 82.224L635.364 82.2321L636.255 82.688ZM628.831 91.52L628.227 90.7225L628.217 90.7306L628.831 91.52ZM618.207 96.896L617.921 95.9376L617.909 95.9413L617.896 95.9453L618.207 96.896ZM589.791 95.744L589.395 96.6623L589.404 96.6664L589.414 96.6703L589.791 95.744ZM576.863 87.168L576.164 87.8834L576.164 87.8834L576.863 87.168ZM568.286 75.392L567.702 74.5806L567.023 75.0699L567.385 75.8247L568.286 75.392ZM582.515 64.9957C584.341 68.3 586.393 71.1841 588.674 73.6405L590.139 72.2795C587.983 69.9572 586.024 67.2093 584.266 64.0283L582.515 64.9957ZM588.687 73.6541C591.062 76.1175 593.631 78.0266 596.395 79.3642L597.266 77.5638C594.74 76.3414 592.359 74.5812 590.126 72.2659L588.687 73.6541ZM596.406 79.3695C599.268 80.7111 602.272 81.384 605.407 81.384V79.384C602.568 79.384 599.854 78.7769 597.255 77.5585L596.406 79.3695ZM605.407 81.384C608.729 81.384 611.556 80.5736 613.815 78.88L612.615 77.28C610.777 78.6584 608.399 79.384 605.407 79.384V81.384ZM613.835 78.864C616.135 77.0433 617.287 74.5722 617.287 71.552H615.287C615.287 73.9932 614.39 75.8741 612.594 77.296L613.835 78.864ZM617.287 71.552C617.287 69.0731 616.641 66.9821 615.247 65.3895L613.742 66.7065C614.738 67.8445 615.287 69.4229 615.287 71.552H617.287ZM615.266 65.4123C613.943 63.8051 611.88 62.3629 609.17 61.0518L608.299 62.8522C610.88 64.101 612.657 65.3895 613.723 66.6837L615.266 65.4123ZM609.17 61.0518C606.485 59.7527 602.954 58.2897 598.588 56.6629L597.889 58.5371C602.227 60.153 605.693 61.5913 608.299 62.8522L609.17 61.0518ZM598.577 56.6591C596.487 55.9066 594.046 54.8554 591.251 53.5002L590.378 55.2998C593.215 56.6752 595.723 57.7574 597.9 58.5409L598.577 56.6591ZM591.262 53.5056C588.61 52.1797 586.076 50.4777 583.659 48.3946L582.354 49.9094C584.887 52.093 587.558 53.8896 590.367 55.2944L591.262 53.5056ZM583.674 48.4074C581.291 46.2713 579.315 43.7213 577.747 40.7492L575.978 41.6828C577.652 44.8547 579.772 47.5953 582.339 49.8966L583.674 48.4074ZM577.752 40.7592C576.219 37.7742 575.431 34.1414 575.431 29.824H573.431C573.431 34.3813 574.263 38.3432 575.973 41.6728L577.752 40.7592ZM575.431 29.824C575.431 24.7144 576.746 20.3578 579.341 16.7075L577.712 15.5485C574.846 19.5782 573.431 24.3522 573.431 29.824H575.431ZM579.333 16.7194C582.034 13.036 585.639 10.2441 590.176 8.34658L589.405 6.50142C584.556 8.52923 580.651 11.54 577.72 15.5366L579.333 16.7194ZM590.184 8.34314C594.825 6.35436 599.98 5.352 605.663 5.352V3.352C599.74 3.352 594.313 4.39763 589.397 6.50485L590.184 8.34314ZM605.663 5.352C611.529 5.352 616.545 6.31589 620.739 8.20758L621.562 6.38441C617.052 4.35077 611.743 3.352 605.663 3.352V5.352ZM620.746 8.21053C625.085 10.1298 628.643 12.536 631.441 15.4168L632.876 14.0232C629.872 10.9307 626.09 8.38754 621.555 6.38146L620.746 8.21053ZM631.441 15.4168C634.286 18.3449 636.439 21.2921 637.92 24.2552L639.709 23.3608C638.119 20.1799 635.834 17.0684 632.876 14.0232L631.441 15.4168ZM638.327 22.9348L621.815 32.1508L622.79 33.8972L639.302 24.6812L638.327 22.9348ZM623.16 32.5095C621.833 30.298 620.278 28.3845 618.491 26.7767L617.154 28.2633C618.78 29.7275 620.212 31.4833 621.445 33.5385L623.16 32.5095ZM618.53 26.8129C616.819 25.1024 614.876 23.7902 612.703 22.8849L611.934 24.7311C613.857 25.5325 615.583 26.695 617.115 28.2271L618.53 26.8129ZM612.75 22.9059C610.645 21.899 608.363 21.4 605.919 21.4V23.4C608.082 23.4 610.067 23.8397 611.887 24.7101L612.75 22.9059ZM605.919 21.4C602.714 21.4 600.102 22.1104 598.234 23.6831L599.523 25.2129C600.898 24.0549 602.979 23.4 605.919 23.4V21.4ZM598.259 23.6631C596.412 25.1212 595.447 27.0252 595.447 29.312H597.447C597.447 27.6735 598.102 26.3348 599.498 25.2329L598.259 23.6631ZM595.447 29.312C595.447 31.6426 596.332 33.6842 598.043 35.3951L599.458 33.9809C598.097 32.6198 597.447 31.0774 597.447 29.312H595.447ZM598.063 35.4139C599.794 37.0543 602.165 38.5185 605.131 39.8269L605.938 37.9971C603.101 36.7455 600.949 35.3937 599.438 33.962L598.063 35.4139ZM605.141 39.8311C608.155 41.1231 611.762 42.4969 615.959 43.9528L616.614 42.0632C612.448 40.6178 608.887 39.2609 605.928 37.9929L605.141 39.8311ZM615.933 43.9433C619.039 45.1187 621.93 46.502 624.608 48.0919L625.629 46.3721C622.845 44.7194 619.849 43.2866 616.64 42.0727L615.933 43.9433ZM624.628 48.1036C627.271 49.5903 629.577 51.4033 631.552 53.5423L633.021 52.1857C630.9 49.8874 628.427 47.9457 625.609 46.3604L624.628 48.1036ZM631.566 53.5571C633.61 55.6836 635.206 58.1371 636.354 60.9247L638.203 60.1632C636.962 57.1482 635.229 54.4817 633.007 52.1709L631.566 53.5571ZM636.354 60.9247C637.49 63.684 638.071 66.8788 638.071 70.528H640.071C640.071 66.6679 639.456 63.2066 638.203 60.1632L636.354 60.9247ZM638.071 70.528C638.071 74.9084 637.163 78.7993 635.369 82.224L637.14 83.152C639.101 79.4086 640.071 75.193 640.071 70.528H638.071ZM635.364 82.2321C633.642 85.5958 631.265 88.4234 628.227 90.7226L629.434 92.3174C632.71 89.8379 635.283 86.7775 637.145 83.1439L635.364 82.2321ZM628.217 90.7306C625.25 93.0382 621.822 94.7757 617.921 95.9376L618.492 97.8544C622.613 96.627 626.267 94.7805 629.444 92.3094L628.217 90.7306ZM617.896 95.9453C614.073 97.1922 610.124 97.816 606.047 97.816V99.816C610.332 99.816 614.49 99.1598 618.517 97.8467L617.896 95.9453ZM606.047 97.816C600.364 97.816 595.074 96.8138 590.167 94.8177L589.414 96.6703C594.576 98.7702 600.123 99.816 606.047 99.816V97.816ZM590.186 94.8257C585.344 92.7384 581.138 89.9467 577.561 86.4526L576.164 87.8834C579.925 91.5573 584.339 94.483 589.395 96.6623L590.186 94.8257ZM577.561 86.4526C573.968 82.9434 571.181 79.1121 569.188 74.9593L567.385 75.8247C569.488 80.2052 572.418 84.2246 576.164 87.8834L577.561 86.4526ZM568.871 76.2034L583.975 65.3234L582.806 63.7006L567.702 74.5806L568.871 76.2034ZM644.575 25.728H643.575V26.728H644.575V25.728ZM644.575 6.39999V5.39999H643.575V6.39999H644.575ZM715.487 6.39999H716.487V5.39999H715.487V6.39999ZM715.487 25.728V26.728H716.487V25.728H715.487ZM690.783 25.728V24.728H689.783V25.728H690.783ZM690.783 96V97H691.783V96H690.783ZM669.151 96H668.151V97H669.151V96ZM669.151 25.728H670.151V24.728H669.151V25.728ZM645.575 25.728V6.39999H643.575V25.728H645.575ZM644.575 7.39999H715.487V5.39999H644.575V7.39999ZM714.487 6.39999V25.728H716.487V6.39999H714.487ZM715.487 24.728H690.783V26.728H715.487V24.728ZM689.783 25.728V96H691.783V25.728H689.783ZM690.783 95H669.151V97H690.783V95ZM670.151 96V25.728H668.151V96H670.151ZM669.151 24.728H644.575V26.728H669.151V24.728ZM739.621 96H738.621V97H739.621V96ZM739.621 78.208V77.208H738.621V78.208H739.621ZM784.805 78.208H785.805V77.208H784.805V78.208ZM784.805 96V97H785.805V96H784.805ZM739.621 24.192H738.621V25.192H739.621V24.192ZM739.621 6.39999V5.39999H738.621V6.39999H739.621ZM784.805 6.39999H785.805V5.39999H784.805V6.39999ZM784.805 24.192V25.192H785.805V24.192H784.805ZM739.621 57.6H738.621V58.6H739.621V57.6ZM739.621 40.192V39.192H738.621V40.192H739.621ZM782.245 40.192H783.245V39.192H782.245V40.192ZM782.245 57.6V58.6H783.245V57.6H782.245ZM725.285 6.39999V5.39999H724.285V6.39999H725.285ZM746.021 6.39999H747.021V5.39999H746.021V6.39999ZM746.021 96V97H747.021V96H746.021ZM725.285 96H724.285V97H725.285V96ZM740.621 96V78.208H738.621V96H740.621ZM739.621 79.208H784.805V77.208H739.621V79.208ZM783.805 78.208V96H785.805V78.208H783.805ZM784.805 95H739.621V97H784.805V95ZM740.621 24.192V6.39999H738.621V24.192H740.621ZM739.621 7.39999H784.805V5.39999H739.621V7.39999ZM783.805 6.39999V24.192H785.805V6.39999H783.805ZM784.805 23.192H739.621V25.192H784.805V23.192ZM740.621 57.6V40.192H738.621V57.6H740.621ZM739.621 41.192H782.245V39.192H739.621V41.192ZM781.245 40.192V57.6H783.245V40.192H781.245ZM782.245 56.6H739.621V58.6H782.245V56.6ZM725.285 7.39999H746.021V5.39999H725.285V7.39999ZM745.021 6.39999V96H747.021V6.39999H745.021ZM746.021 95H725.285V97H746.021V95ZM726.285 96V6.39999H724.285V96H726.285ZM864.234 6.39999V5.39999H863.234V6.39999H864.234ZM885.098 6.39999H886.098V5.39999H885.098V6.39999ZM885.098 100.48L884.434 101.228L886.098 102.703V100.48H885.098ZM823.146 45.568L823.809 44.8197L822.146 43.3454V45.568H823.146ZM823.146 96V97H824.146V96H823.146ZM802.41 96H801.41V97H802.41V96ZM802.41 1.92L803.074 1.17233L801.41 -0.305697V1.92H802.41ZM864.234 56.832L863.569 57.5797L865.234 59.0577V56.832H864.234ZM864.234 7.39999H885.098V5.39999H864.234V7.39999ZM884.098 6.39999V100.48H886.098V6.39999H884.098ZM885.761 99.7317L823.809 44.8197L822.482 46.3163L884.434 101.228L885.761 99.7317ZM822.146 45.568V96H824.146V45.568H822.146ZM823.146 95H802.41V97H823.146V95ZM803.41 96V1.92H801.41V96H803.41ZM801.745 2.66766L863.569 57.5797L864.898 56.0843L803.074 1.17233L801.745 2.66766ZM865.234 56.832V6.39999H863.234V56.832H865.234ZM904.035 6.39999V5.39999H903.035V6.39999H904.035ZM926.435 6.39999H927.435V5.39999H926.435V6.39999ZM926.435 96V97H927.435V96H926.435ZM904.035 96H903.035V97H904.035V96ZM956.899 6.39999V5.39999H956.44L956.141 5.74714L956.899 6.39999ZM982.243 6.39999L982.999 7.05457L984.431 5.39999H982.243V6.39999ZM945.891 48.384L945.135 47.7294L944.588 48.3602L945.111 49.0105L945.891 48.384ZM984.163 96V97H986.249L984.942 95.3735L984.163 96ZM957.923 96L957.143 96.6265L957.443 97H957.923V96ZM920.163 49.024L919.405 48.3711L918.862 49.0017L919.383 49.6505L920.163 49.024ZM904.035 7.39999H926.435V5.39999H904.035V7.39999ZM925.435 6.39999V96H927.435V6.39999H925.435ZM926.435 95H904.035V97H926.435V95ZM905.035 96V6.39999H903.035V96H905.035ZM956.899 7.39999H982.243V5.39999H956.899V7.39999ZM981.487 5.74541L945.135 47.7294L946.646 49.0386L982.999 7.05457L981.487 5.74541ZM945.111 49.0105L983.383 96.6265L984.942 95.3735L946.67 47.7575L945.111 49.0105ZM984.163 95H957.923V97H984.163V95ZM958.702 95.3735L920.942 48.3975L919.383 49.6505L957.143 96.6265L958.702 95.3735ZM920.92 49.6768L957.656 7.05284L956.141 5.74714L919.405 48.3711L920.92 49.6768ZM1008.02 65.28L1007.13 65.7272L1007.13 65.7385L1007.14 65.7496L1008.02 65.28ZM1016.86 74.752L1016.33 75.6044L1016.34 75.6095L1016.86 74.752ZM1043.48 74.752L1042.96 73.8945L1042.96 73.8997L1043.48 74.752ZM1052.31 65.28L1051.42 64.818L1051.42 64.8252L1052.31 65.28ZM1052.44 37.248L1051.55 37.6952L1051.55 37.7028L1052.44 37.248ZM1043.74 27.648L1044.26 26.7957L1044.26 26.7957L1043.74 27.648ZM1016.86 27.648L1016.34 26.7905L1016.33 26.7957L1016.86 27.648ZM1008.02 37.248L1007.14 36.786L1007.13 36.7932L1008.02 37.248ZM985.624 32.256L984.706 31.8587L984.701 31.8704L985.624 32.256ZM995.864 17.408L995.171 16.6869L995.864 17.408ZM1011.22 7.808L1011.58 8.74384L1011.59 8.73924L1011.22 7.808ZM1049.37 7.808L1049 8.73741L1049.01 8.74066L1049.01 8.74377L1049.37 7.808ZM1074.84 32.256L1075.76 31.8704L1075.76 31.8704L1074.84 32.256ZM1074.84 70.272L1073.91 69.8912L1073.91 69.903L1074.84 70.272ZM1064.86 85.376L1064.16 84.6619L1064.15 84.6689L1064.86 85.376ZM1049.62 95.36L1049.99 96.2913L1050 96.2866L1049.62 95.36ZM1010.84 95.36L1010.46 96.2867L1010.48 96.2912L1010.84 95.36ZM995.48 85.376L994.772 86.0831L994.779 86.0901L995.48 85.376ZM985.496 70.272L984.566 70.6411L984.571 70.6527L985.496 70.272ZM1003.95 51.2C1003.95 56.6218 1005 61.4723 1007.13 65.7272L1008.92 64.8328C1006.95 60.8957 1005.95 56.3596 1005.95 51.2H1003.95ZM1007.14 65.7496C1009.35 69.9125 1012.42 73.2041 1016.33 75.6043L1017.38 73.8997C1013.78 71.6919 1010.96 68.6688 1008.91 64.8104L1007.14 65.7496ZM1016.34 75.6095C1020.36 78.0195 1025.02 79.208 1030.3 79.208V77.208C1025.33 77.208 1021.03 76.0925 1017.37 73.8945L1016.34 75.6095ZM1030.3 79.208C1035.49 79.208 1040.07 78.0181 1044 75.6043L1042.96 73.8997C1039.38 76.0939 1035.17 77.208 1030.3 77.208V79.208ZM1043.99 75.6095C1048 73.2086 1051.07 69.9113 1053.2 65.7348L1051.42 64.8252C1049.46 68.6701 1046.64 71.6874 1042.97 73.8945L1043.99 75.6095ZM1053.2 65.7419C1055.42 61.4838 1056.51 56.6279 1056.51 51.2H1054.51C1054.51 56.3534 1053.47 60.8842 1051.42 64.8181L1053.2 65.7419ZM1056.51 51.2C1056.51 45.7788 1055.46 40.9674 1053.33 36.7932L1051.55 37.7028C1053.51 41.55 1054.51 46.0399 1054.51 51.2H1056.51ZM1053.33 36.8008C1051.21 32.5446 1048.18 29.2014 1044.26 26.7957L1043.21 28.5003C1046.8 30.7026 1049.58 33.7593 1051.55 37.6952L1053.33 36.8008ZM1044.26 26.7957C1040.32 24.3788 1035.65 23.192 1030.3 23.192V25.192C1035.35 25.192 1039.64 26.3092 1043.21 28.5003L1044.26 26.7957ZM1030.3 23.192C1025.02 23.192 1020.36 24.3805 1016.34 26.7905L1017.37 28.5055C1021.03 26.3075 1025.33 25.192 1030.3 25.192V23.192ZM1016.33 26.7957C1012.42 29.1991 1009.35 32.5375 1007.14 36.7861L1008.91 37.7099C1010.96 33.7665 1013.79 30.7049 1017.38 28.5003L1016.33 26.7957ZM1007.13 36.7932C1005 40.9674 1003.95 45.7788 1003.95 51.2H1005.95C1005.95 46.0399 1006.95 41.55 1008.91 37.7028L1007.13 36.7932ZM983.04 51.2C983.04 44.4051 984.213 38.2234 986.546 32.6416L984.701 31.8704C982.255 37.7232 981.04 44.1709 981.04 51.2H983.04ZM986.541 32.6532C988.965 27.0537 992.303 22.2155 996.556 18.1291L995.171 16.6869C990.72 20.9632 987.231 26.0236 984.706 31.8588L986.541 32.6532ZM996.556 18.1291C1000.81 14.0456 1005.81 10.9167 1011.58 8.74377L1010.87 6.87223C1004.86 9.13659 999.625 12.4077 995.171 16.6869L996.556 18.1291ZM1011.59 8.73924C1017.35 6.48418 1023.58 5.352 1030.3 5.352V3.352C1023.35 3.352 1016.87 4.52381 1010.86 6.87676L1011.59 8.73924ZM1030.3 5.352C1037.09 5.352 1043.33 6.48479 1049 8.73741L1049.74 6.87858C1043.8 4.5232 1037.32 3.352 1030.3 3.352V5.352ZM1049.01 8.74377C1054.78 10.9167 1059.78 14.0456 1064.03 18.1291L1065.42 16.6869C1060.97 12.4077 1055.73 9.13659 1049.72 6.87223L1049.01 8.74377ZM1064.03 18.1291C1068.29 22.213 1071.58 27.0472 1073.92 32.6416L1075.76 31.8704C1073.32 26.0301 1069.87 20.9657 1065.42 16.6869L1064.03 18.1291ZM1073.92 32.6416C1076.25 38.2234 1077.42 44.4051 1077.42 51.2H1079.42C1079.42 44.1709 1078.21 37.7232 1075.76 31.8704L1073.92 32.6416ZM1077.42 51.2C1077.42 57.9947 1076.25 64.2211 1073.91 69.8912L1075.76 70.6527C1078.21 64.7176 1079.42 58.2293 1079.42 51.2H1077.42ZM1073.91 69.903C1071.66 75.5791 1068.41 80.4954 1064.16 84.6619L1065.56 86.0901C1070.01 81.7232 1073.41 76.5702 1075.77 70.641L1073.91 69.903ZM1064.15 84.6689C1059.98 88.836 1055.02 92.0916 1049.25 94.4334L1050 96.2866C1056 93.8497 1061.2 90.4493 1065.56 86.0831L1064.15 84.6689ZM1049.26 94.4288C1043.5 96.6827 1037.18 97.816 1030.3 97.816V99.816C1037.4 99.816 1043.97 98.6453 1049.99 96.2912L1049.26 94.4288ZM1030.3 97.816C1023.32 97.816 1016.96 96.6822 1011.2 94.4288L1010.48 96.2912C1016.49 98.6458 1023.1 99.816 1030.3 99.816V97.816ZM1011.22 94.4334C1005.44 92.091 1000.43 88.8334 996.18 84.6619L994.779 86.0901C999.229 90.4519 1004.46 93.8504 1010.46 96.2866L1011.22 94.4334ZM996.187 84.6689C992.017 80.4993 988.761 75.5768 986.42 69.8912L984.571 70.6527C987.008 76.5725 990.409 81.7193 994.772 86.0831L996.187 84.6689ZM986.425 69.903C984.172 64.2297 983.04 57.9992 983.04 51.2H981.04C981.04 58.2248 982.211 64.709 984.566 70.641L986.425 69.903ZM1090.97 78.976L1091.68 79.6831L1091.68 79.6831L1090.97 78.976ZM1108.25 78.976L1107.53 79.6696L1107.53 79.6696L1108.25 78.976ZM1108.25 95.616L1108.97 96.3096L1108.25 95.616ZM1090.97 95.616L1090.26 96.3231L1090.97 95.616ZM1088.51 87.296C1088.51 84.32 1089.56 81.8006 1091.68 79.6831L1090.26 78.2689C1087.77 80.7594 1086.51 83.7867 1086.51 87.296H1088.51ZM1091.68 79.6831C1093.78 77.5763 1096.38 76.52 1099.55 76.52V74.52C1095.88 74.52 1092.76 75.7677 1090.26 78.2689L1091.68 79.6831ZM1099.55 76.52C1102.89 76.52 1105.52 77.5859 1107.53 79.6696L1108.97 78.2824C1106.54 75.7581 1103.37 74.52 1099.55 74.52V76.52ZM1107.53 79.6696C1109.57 81.7845 1110.58 84.308 1110.58 87.296H1112.58C1112.58 83.7986 1111.37 80.7755 1108.97 78.2824L1107.53 79.6696ZM1110.58 87.296C1110.58 90.284 1109.57 92.8075 1107.53 94.9224L1108.97 96.3096C1111.37 93.8165 1112.58 90.7934 1112.58 87.296H1110.58ZM1107.53 94.9224C1105.52 97.0061 1102.89 98.072 1099.55 98.072V100.072C1103.37 100.072 1106.54 98.8339 1108.97 96.3096L1107.53 94.9224ZM1099.55 98.072C1096.38 98.072 1093.78 97.0157 1091.68 94.9089L1090.26 96.3231C1092.76 98.8243 1095.88 100.072 1099.55 100.072V98.072ZM1091.68 94.9089C1089.56 92.7914 1088.51 90.272 1088.51 87.296H1086.51C1086.51 90.8053 1087.77 93.8326 1090.26 96.3231L1091.68 94.9089Z" fill="white" mask="url(#path-1-outside-1_11_22)"/>
</svg>
