<svg width="1037" height="101" viewBox="0 0 1037 101" fill="none" xmlns="http://www.w3.org/2000/svg">
<mask id="path-1-outside-1_11_22" maskUnits="userSpaceOnUse" x="-1" y="-2" width="1039" height="105" fill="black">
<rect fill="white" x="-1" y="-2" width="1039" height="105"/>
<path d="M0.597 6.39999H22.229V77.44H58.197V96H0.597V6.39999ZM68.222 6.39999H90.238V96H68.222V6.39999ZM171.046 6.39999H191.91V100.48L129.958 45.568V96H109.222V1.92L171.046 56.832V6.39999ZM224.927 78.72L226.463 62.208H270.879L272.287 78.72H224.927ZM248.351 39.296L235.807 68.224L236.831 72.96L225.695 96H201.247L248.351 0.767998L295.583 96H271.007L260.255 73.856L261.023 68.352L248.351 39.296ZM343.347 6.39999H365.747V96H343.347V6.39999ZM396.211 6.39999H421.555L385.203 48.384L423.475 96H397.235L359.475 49.024L396.211 6.39999ZM444.264 51.2C444.264 56.4907 445.288 61.184 447.336 65.28C449.469 69.2907 452.413 72.448 456.168 74.752C460.008 77.056 464.488 78.208 469.608 78.208C474.643 78.208 479.037 77.056 482.792 74.752C486.632 72.448 489.576 69.2907 491.624 65.28C493.757 61.184 494.824 56.4907 494.824 51.2C494.824 45.9093 493.8 41.2587 491.752 37.248C489.704 33.152 486.803 29.952 483.048 27.648C479.293 25.344 474.813 24.192 469.608 24.192C464.488 24.192 460.008 25.344 456.168 27.648C452.413 29.952 449.469 33.152 447.336 37.248C445.288 41.2587 444.264 45.9093 444.264 51.2ZM421.352 51.2C421.352 44.288 422.547 37.9733 424.936 32.256C427.411 26.5387 430.824 21.5893 435.176 17.408C439.528 13.2267 444.648 10.0267 450.536 7.808C456.424 5.504 462.781 4.352 469.608 4.352C476.52 4.352 482.877 5.504 488.68 7.808C494.568 10.0267 499.688 13.2267 504.04 17.408C508.392 21.5893 511.763 26.5387 514.152 32.256C516.541 37.9733 517.736 44.288 517.736 51.2C517.736 58.112 516.541 64.4693 514.152 70.272C511.848 76.0747 508.52 81.1093 504.168 85.376C499.901 89.6427 494.824 92.9707 488.936 95.36C483.048 97.664 476.605 98.816 469.608 98.816C462.525 98.816 456.04 97.664 450.152 95.36C444.264 92.9707 439.144 89.6427 434.792 85.376C430.525 81.1093 427.197 76.0747 424.808 70.272C422.504 64.4693 421.352 58.112 421.352 51.2ZM541.453 64.512C543.245 67.7547 545.25 70.5707 547.469 72.96C549.773 75.3493 552.248 77.184 554.893 78.464C557.624 79.744 560.482 80.384 563.469 80.384C566.626 80.384 569.229 79.616 571.277 78.08C573.325 76.4587 574.349 74.2827 574.349 71.552C574.349 69.248 573.752 67.4133 572.557 66.048C571.362 64.5973 569.442 63.232 566.797 61.952C564.152 60.672 560.653 59.2213 556.301 57.6C554.168 56.832 551.693 55.7653 548.877 54.4C546.146 53.0347 543.544 51.2853 541.069 49.152C538.594 46.9333 536.546 44.288 534.925 41.216C533.304 38.0587 532.493 34.2613 532.493 29.824C532.493 24.5333 533.858 19.968 536.589 16.128C539.405 12.288 543.16 9.38666 547.853 7.424C552.632 5.376 557.922 4.352 563.725 4.352C569.698 4.352 574.861 5.33333 579.213 7.296C583.65 9.25866 587.32 11.7333 590.221 14.72C593.122 17.7067 595.341 20.736 596.877 23.808L580.365 33.024C579.085 30.8907 577.592 29.056 575.885 27.52C574.264 25.8987 572.429 24.6613 570.381 23.808C568.418 22.8693 566.285 22.4 563.981 22.4C560.909 22.4 558.562 23.0827 556.941 24.448C555.32 25.728 554.509 27.3493 554.509 29.312C554.509 31.36 555.277 33.152 556.813 34.688C558.434 36.224 560.696 37.632 563.597 38.912C566.584 40.192 570.168 41.5573 574.349 43.008C577.506 44.2027 580.45 45.6107 583.181 47.232C585.912 48.768 588.301 50.6453 590.349 52.864C592.482 55.0827 594.146 57.6427 595.341 60.544C596.536 63.4453 597.133 66.7733 597.133 70.528C597.133 75.0507 596.194 79.104 594.317 82.688C592.525 86.1867 590.05 89.1307 586.893 91.52C583.821 93.9093 580.28 95.7013 576.269 96.896C572.344 98.176 568.29 98.816 564.109 98.816C558.306 98.816 552.888 97.792 547.853 95.744C542.904 93.6107 538.594 90.752 534.925 87.168C531.256 83.584 528.397 79.6587 526.349 75.392L541.453 64.512ZM602.637 25.728V6.39999H673.549V25.728H648.845V96H627.213V25.728H602.637ZM697.683 96V78.208H742.867V96H697.683ZM697.683 24.192V6.39999H742.867V24.192H697.683ZM697.683 57.6V40.192H740.307V57.6H697.683ZM683.347 6.39999H704.083V96H683.347V6.39999ZM822.296 6.39999H843.16V100.48L781.208 45.568V96H760.472V1.92L822.296 56.832V6.39999ZM862.097 6.39999H884.497V96H862.097V6.39999ZM914.961 6.39999H940.305L903.953 48.384L942.225 96H915.985L878.225 49.024L914.961 6.39999ZM963.014 51.2C963.014 56.4907 964.038 61.184 966.086 65.28C968.219 69.2907 971.163 72.448 974.918 74.752C978.758 77.056 983.238 78.208 988.358 78.208C993.393 78.208 997.787 77.056 1001.54 74.752C1005.38 72.448 1008.33 69.2907 1010.37 65.28C1012.51 61.184 1013.57 56.4907 1013.57 51.2C1013.57 45.9093 1012.55 41.2587 1010.5 37.248C1008.45 33.152 1005.55 29.952 1001.8 27.648C998.043 25.344 993.563 24.192 988.358 24.192C983.238 24.192 978.758 25.344 974.918 27.648C971.163 29.952 968.219 33.152 966.086 37.248C964.038 41.2587 963.014 45.9093 963.014 51.2ZM940.102 51.2C940.102 44.288 941.297 37.9733 943.686 32.256C946.161 26.5387 949.574 21.5893 953.926 17.408C958.278 13.2267 963.398 10.0267 969.286 7.808C975.174 5.504 981.531 4.352 988.358 4.352C995.27 4.352 1001.63 5.504 1007.43 7.808C1013.32 10.0267 1018.44 13.2267 1022.79 17.408C1027.14 21.5893 1030.51 26.5387 1032.9 32.256C1035.29 37.9733 1036.49 44.288 1036.49 51.2C1036.49 58.112 1035.29 64.4693 1032.9 70.272C1030.6 76.0747 1027.27 81.1093 1022.92 85.376C1018.65 89.6427 1013.57 92.9707 1007.69 95.36C1001.8 97.664 995.355 98.816 988.358 98.816C981.275 98.816 974.79 97.664 968.902 95.36C963.014 92.9707 957.894 89.6427 953.542 85.376C949.275 81.1093 945.947 76.0747 943.558 70.272C941.254 64.4693 940.102 58.112 940.102 51.2Z"/>
</mask>
<path d="M0.597 6.39999V5.39999H-0.403V6.39999H0.597ZM22.229 6.39999H23.229V5.39999H22.229V6.39999ZM22.229 77.44H21.229V78.44H22.229V77.44ZM58.197 77.44H59.197V76.44H58.197V77.44ZM58.197 96V97H59.197V96H58.197ZM0.597 96H-0.403V97H0.597V96ZM0.597 7.39999H22.229V5.39999H0.597V7.39999ZM21.229 6.39999V77.44H23.229V6.39999H21.229ZM22.229 78.44H58.197V76.44H22.229V78.44ZM57.197 77.44V96H59.197V77.44H57.197ZM58.197 95H0.597V97H58.197V95ZM1.597 96V6.39999H-0.403V96H1.597ZM68.222 6.39999V5.39999H67.222V6.39999H68.222ZM90.238 6.39999H91.238V5.39999H90.238V6.39999ZM90.238 96V97H91.238V96H90.238ZM68.222 96H67.222V97H68.222V96ZM68.222 7.39999H90.238V5.39999H68.222V7.39999ZM89.238 6.39999V96H91.238V6.39999H89.238ZM90.238 95H68.222V97H90.238V95ZM69.222 96V6.39999H67.222V96H69.222ZM171.046 6.39999V5.39999H170.046V6.39999H171.046ZM191.91 6.39999H192.91V5.39999H191.91V6.39999ZM191.91 100.48L191.247 101.228L192.91 102.703V100.48H191.91ZM129.958 45.568L130.621 44.8196L128.958 43.3454V45.568H129.958ZM129.958 96V97H130.958V96H129.958ZM109.222 96H108.222V97H109.222V96ZM109.222 1.92L109.886 1.17233L108.222 -0.305698V1.92H109.222ZM171.046 56.832L170.382 57.5797L172.046 59.0577V56.832H171.046ZM171.046 7.39999H191.91V5.39999H171.046V7.39999ZM190.91 6.39999V100.48H192.91V6.39999H190.91ZM192.573 99.7317L130.621 44.8196L129.295 46.3163L191.247 101.228L192.573 99.7317ZM128.958 45.568V96H130.958V45.568H128.958ZM129.958 95H109.222V97H129.958V95ZM110.222 96V1.92H108.222V96H110.222ZM108.558 2.66766L170.382 57.5797L171.71 56.0843L109.886 1.17233L108.558 2.66766ZM172.046 56.832V6.39999H170.046V56.832H172.046ZM224.927 78.72L223.931 78.6274L223.83 79.72H224.927V78.72ZM226.463 62.208V61.208H225.552L225.467 62.1154L226.463 62.208ZM270.879 62.208L271.875 62.123L271.797 61.208H270.879V62.208ZM272.287 78.72V79.72H273.376L273.283 78.635L272.287 78.72ZM248.351 39.296L249.268 38.8962L248.348 36.7885L247.434 38.8982L248.351 39.296ZM235.807 68.224L234.89 67.8262L234.762 68.1211L234.83 68.4353L235.807 68.224ZM236.831 72.96L237.731 73.3952L237.881 73.0852L237.808 72.7487L236.831 72.96ZM225.695 96V97H226.322L226.595 96.4352L225.695 96ZM201.247 96L200.351 95.5566L199.637 97H201.247V96ZM248.351 0.767998L249.247 0.323677L248.35 -1.48508L247.455 0.324642L248.351 0.767998ZM295.583 96V97H297.195L296.479 95.5557L295.583 96ZM271.007 96L270.107 96.4368L270.381 97H271.007V96ZM260.255 73.856L259.265 73.7178L259.223 74.0191L259.355 74.2928L260.255 73.856ZM261.023 68.352L262.013 68.4902L262.052 68.2108L261.94 67.9522L261.023 68.352ZM225.923 78.8126L227.459 62.3006L225.467 62.1154L223.931 78.6274L225.923 78.8126ZM226.463 63.208H270.879V61.208H226.463V63.208ZM269.883 62.293L271.291 78.805L273.283 78.635L271.875 62.123L269.883 62.293ZM272.287 77.72H224.927V79.72H272.287V77.72ZM247.434 38.8982L234.89 67.8262L236.724 68.6218L249.268 39.6938L247.434 38.8982ZM234.83 68.4353L235.854 73.1713L237.808 72.7487L236.784 68.0127L234.83 68.4353ZM235.931 72.5248L224.795 95.5648L226.595 96.4352L237.731 73.3952L235.931 72.5248ZM225.695 95H201.247V97H225.695V95ZM202.143 96.4434L249.247 1.21135L247.455 0.324642L200.351 95.5566L202.143 96.4434ZM247.455 1.21232L294.687 96.4443L296.479 95.5557L249.247 0.323677L247.455 1.21232ZM295.583 95H271.007V97H295.583V95ZM271.907 95.5632L261.155 73.4192L259.355 74.2928L270.107 96.4368L271.907 95.5632ZM261.245 73.9942L262.013 68.4902L260.033 68.2138L259.265 73.7178L261.245 73.9942ZM261.94 67.9522L249.268 38.8962L247.434 39.6958L260.106 68.7518L261.94 67.9522ZM343.347 6.39999V5.39999H342.347V6.39999H343.347ZM365.747 6.39999H366.747V5.39999H365.747V6.39999ZM365.747 96V97H366.747V96H365.747ZM343.347 96H342.347V97H343.347V96ZM396.211 6.39999V5.39999H395.753L395.454 5.74714L396.211 6.39999ZM421.555 6.39999L422.311 7.05457L423.744 5.39999H421.555V6.39999ZM385.203 48.384L384.447 47.7294L383.901 48.3602L384.424 49.0105L385.203 48.384ZM423.475 96V97H425.562L424.254 95.3735L423.475 96ZM397.235 96L396.456 96.6265L396.756 97H397.235V96ZM359.475 49.024L358.717 48.3711L358.174 49.0017L358.696 49.6505L359.475 49.024ZM343.347 7.39999H365.747V5.39999H343.347V7.39999ZM364.747 6.39999V96H366.747V6.39999H364.747ZM365.747 95H343.347V97H365.747V95ZM344.347 96V6.39999H342.347V96H344.347ZM396.211 7.39999H421.555V5.39999H396.211V7.39999ZM420.799 5.74541L384.447 47.7294L385.959 49.0386L422.311 7.05457L420.799 5.74541ZM384.424 49.0105L422.696 96.6265L424.254 95.3735L385.982 47.7575L384.424 49.0105ZM423.475 95H397.235V97H423.475V95ZM398.014 95.3735L360.254 48.3975L358.696 49.6505L396.456 96.6265L398.014 95.3735ZM360.232 49.6768L396.968 7.05285L395.454 5.74714L358.717 48.3711L360.232 49.6768ZM447.336 65.28L446.442 65.7272L446.447 65.7385L446.453 65.7496L447.336 65.28ZM456.168 74.752L455.645 75.6044L455.654 75.6095L456.168 74.752ZM482.792 74.752L482.277 73.8945L482.269 73.8997L482.792 74.752ZM491.624 65.28L490.737 64.818L490.733 64.8252L491.624 65.28ZM491.752 37.248L490.858 37.6952L490.861 37.7028L491.752 37.248ZM483.048 27.648L483.571 26.7957L483.048 27.648ZM456.168 27.648L455.653 26.7905L455.645 26.7957L456.168 27.648ZM447.336 37.248L446.449 36.786L446.445 36.7932L447.336 37.248ZM424.936 32.256L424.018 31.8587L424.013 31.8704L424.936 32.256ZM435.176 17.408L434.483 16.6869L435.176 17.408ZM450.536 7.808L450.889 8.74384L450.9 8.73924L450.536 7.808ZM488.68 7.808L488.311 8.73742L488.319 8.74067L488.327 8.74377L488.68 7.808ZM514.152 32.256L515.075 31.8704V31.8704L514.152 32.256ZM514.152 70.272L513.227 69.8912L513.223 69.903L514.152 70.272ZM504.168 85.376L503.468 84.6619L503.461 84.6689L504.168 85.376ZM488.936 95.36L489.3 96.2913L489.312 96.2866L488.936 95.36ZM450.152 95.36L449.776 96.2867L449.788 96.2912L450.152 95.36ZM434.792 85.376L434.085 86.0831L434.092 86.0901L434.792 85.376ZM424.808 70.272L423.879 70.6411L423.883 70.6527L424.808 70.272ZM443.264 51.2C443.264 56.6218 444.314 61.4723 446.442 65.7272L448.23 64.8328C446.262 60.8957 445.264 56.3596 445.264 51.2H443.264ZM446.453 65.7496C448.667 69.9125 451.734 73.2041 455.645 75.6043L456.691 73.8997C453.093 71.6919 450.271 68.6688 448.219 64.8104L446.453 65.7496ZM455.654 75.6095C459.67 78.0195 464.333 79.208 469.608 79.208V77.208C464.643 77.208 460.346 76.0925 456.682 73.8945L455.654 75.6095ZM469.608 79.208C474.8 79.208 479.382 78.0181 483.315 75.6043L482.269 73.8997C478.693 76.0939 474.485 77.208 469.608 77.208V79.208ZM483.307 75.6095C487.308 73.2086 490.382 69.9113 492.515 65.7348L490.733 64.8252C488.77 68.6701 485.956 71.6874 482.278 73.8945L483.307 75.6095ZM492.511 65.7419C494.729 61.4837 495.824 56.6279 495.824 51.2H493.824C493.824 56.3534 492.786 60.8842 490.737 64.8181L492.511 65.7419ZM495.824 51.2C495.824 45.7788 494.774 40.9674 492.643 36.7932L490.861 37.7028C492.826 41.55 493.824 46.0399 493.824 51.2H495.824ZM492.646 36.8008C490.518 32.5446 487.491 29.2014 483.571 26.7957L482.525 28.5003C486.114 30.7026 488.89 33.7593 490.858 37.6952L492.646 36.8008ZM483.571 26.7957C479.632 24.3788 474.964 23.192 469.608 23.192V25.192C474.663 25.192 478.954 26.3092 482.525 28.5003L483.571 26.7957ZM469.608 23.192C464.333 23.192 459.67 24.3805 455.654 26.7905L456.682 28.5055C460.346 26.3075 464.643 25.192 469.608 25.192V23.192ZM455.645 26.7957C451.728 29.1991 448.662 32.5375 446.449 36.7861L448.223 37.7099C450.277 33.7665 453.098 30.7049 456.691 28.5003L455.645 26.7957ZM446.445 36.7932C444.314 40.9674 443.264 45.7788 443.264 51.2H445.264C445.264 46.0399 446.262 41.55 448.227 37.7028L446.445 36.7932ZM422.352 51.2C422.352 44.4051 423.526 38.2234 425.859 32.6416L424.013 31.8704C421.567 37.7232 420.352 44.1709 420.352 51.2H422.352ZM425.854 32.6532C428.277 27.0537 431.616 22.2155 435.869 18.1291L434.483 16.6869C430.032 20.9632 426.544 26.0236 424.018 31.8588L425.854 32.6532ZM435.869 18.1291C440.119 14.0456 445.122 10.9167 450.889 8.74377L450.183 6.87223C444.174 9.13659 438.937 12.4077 434.483 16.6869L435.869 18.1291ZM450.9 8.73924C456.663 6.48418 462.896 5.352 469.608 5.352V3.352C462.667 3.352 456.185 4.52381 450.172 6.87675L450.9 8.73924ZM469.608 5.352C476.407 5.352 482.638 6.48479 488.311 8.73742L489.049 6.87858C483.117 4.5232 476.633 3.352 469.608 3.352V5.352ZM488.327 8.74377C494.094 10.9167 499.097 14.0456 503.347 18.1291L504.733 16.6869C500.279 12.4077 495.042 9.13659 489.033 6.87223L488.327 8.74377ZM503.347 18.1291C507.598 22.213 510.891 27.0472 513.229 32.6416L515.075 31.8704C512.634 26.0301 509.186 20.9657 504.733 16.6869L503.347 18.1291ZM513.229 32.6416C515.562 38.2234 516.736 44.4051 516.736 51.2H518.736C518.736 44.1709 517.521 37.7232 515.075 31.8704L513.229 32.6416ZM516.736 51.2C516.736 57.9947 515.562 64.2211 513.227 69.8913L515.077 70.6527C517.521 64.7176 518.736 58.2293 518.736 51.2H516.736ZM513.223 69.903C510.969 75.5791 507.718 80.4954 503.468 84.6619L504.868 86.0901C509.322 81.7232 512.727 76.5702 515.081 70.641L513.223 69.903ZM503.461 84.6689C499.294 88.836 494.331 92.0916 488.56 94.4334L489.312 96.2866C495.317 93.8497 500.509 90.4493 504.875 86.0831L503.461 84.6689ZM488.572 94.4288C482.811 96.6827 476.494 97.816 469.608 97.816V99.816C476.717 99.816 483.285 98.6453 489.3 96.2912L488.572 94.4288ZM469.608 97.816C462.635 97.816 456.275 96.6822 450.516 94.4288L449.788 96.2912C455.805 98.6458 462.416 99.816 469.608 99.816V97.816ZM450.528 94.4334C444.756 92.091 439.747 88.8334 435.492 84.6619L434.092 86.0901C438.541 90.4519 443.772 93.8504 449.776 96.2866L450.528 94.4334ZM435.499 84.6689C431.33 80.4993 428.074 75.5768 425.733 69.8913L423.883 70.6527C426.321 76.5725 429.721 81.7194 434.085 86.0831L435.499 84.6689ZM425.737 69.903C423.485 64.2297 422.352 57.9992 422.352 51.2H420.352C420.352 58.2248 421.523 64.709 423.879 70.641L425.737 69.903ZM541.453 64.512L542.328 64.0283L541.783 63.0418L540.869 63.7006L541.453 64.512ZM547.469 72.96L546.736 73.6404L546.743 73.6474L546.749 73.6541L547.469 72.96ZM554.893 78.464L554.457 79.3642L554.469 79.3695L554.893 78.464ZM571.277 78.08L571.877 78.88L571.887 78.8722L571.898 78.864L571.277 78.08ZM572.557 66.048L571.785 66.6837L571.795 66.6953L571.804 66.7065L572.557 66.048ZM566.797 61.952L566.361 62.8522L566.797 61.952ZM556.301 57.6L556.65 56.6629L556.64 56.6591L556.301 57.6ZM548.877 54.4L548.43 55.2945L548.441 55.2998L548.877 54.4ZM541.069 49.152L540.401 49.8966L540.409 49.9031L540.416 49.9094L541.069 49.152ZM534.925 41.216L534.035 41.6728L534.041 41.6828L534.925 41.216ZM536.589 16.128L535.783 15.5366L535.778 15.5425L535.774 15.5485L536.589 16.128ZM547.853 7.424L548.239 8.34661L548.247 8.34314L547.853 7.424ZM579.213 7.296L578.802 8.20761L578.808 8.21053L579.213 7.296ZM590.221 14.72L589.504 15.4168L590.221 14.72ZM596.877 23.808L597.364 24.6812L598.199 24.2155L597.771 23.3608L596.877 23.808ZM580.365 33.024L579.508 33.5385L580.006 34.3695L580.852 33.8972L580.365 33.024ZM575.885 27.52L575.178 28.2271L575.196 28.2457L575.216 28.2633L575.885 27.52ZM570.381 23.808L569.95 24.7101L569.973 24.7212L569.996 24.7311L570.381 23.808ZM556.941 24.448L557.561 25.2329L557.573 25.2231L557.585 25.2129L556.941 24.448ZM556.813 34.688L556.106 35.3951L556.115 35.4047L556.125 35.4139L556.813 34.688ZM563.597 38.912L563.193 39.827L563.203 39.8311L563.597 38.912ZM574.349 43.008L574.703 42.0727L574.69 42.0678L574.677 42.0632L574.349 43.008ZM583.181 47.232L582.67 48.0919L582.681 48.0978L582.691 48.1036L583.181 47.232ZM590.349 52.864L589.614 53.5423L589.621 53.5498L589.628 53.5571L590.349 52.864ZM595.341 60.544L594.416 60.9248L595.341 60.544ZM594.317 82.688L593.431 82.224L593.427 82.2321L594.317 82.688ZM586.893 91.52L586.289 90.7225L586.279 90.7307L586.893 91.52ZM576.269 96.896L575.984 95.9376L575.971 95.9413L575.959 95.9453L576.269 96.896ZM547.853 95.744L547.457 96.6623L547.467 96.6664L547.476 96.6703L547.853 95.744ZM534.925 87.168L534.226 87.8834L534.925 87.168ZM526.349 75.392L525.765 74.5806L525.085 75.0699L525.447 75.8247L526.349 75.392ZM540.578 64.9957C542.404 68.3 544.455 71.1841 546.736 73.6404L548.202 72.2795C546.045 69.9572 544.086 67.2093 542.328 64.0283L540.578 64.9957ZM546.749 73.6541C549.125 76.1175 551.693 78.0266 554.457 79.3642L555.329 77.5638C552.802 76.3414 550.421 74.5812 548.189 72.2659L546.749 73.6541ZM554.469 79.3695C557.331 80.7111 560.334 81.384 563.469 81.384V79.384C560.63 79.384 557.917 78.7769 555.317 77.5585L554.469 79.3695ZM563.469 81.384C566.791 81.384 569.619 80.5736 571.877 78.88L570.677 77.28C568.839 78.6584 566.461 79.384 563.469 79.384V81.384ZM571.898 78.864C574.198 77.0433 575.349 74.5722 575.349 71.552H573.349C573.349 73.9932 572.452 75.8741 570.656 77.296L571.898 78.864ZM575.349 71.552C575.349 69.0731 574.703 66.9821 573.31 65.3895L571.804 66.7065C572.8 67.8445 573.349 69.4229 573.349 71.552H575.349ZM573.329 65.4123C572.005 63.8051 569.942 62.3629 567.233 61.0518L566.361 62.8522C568.943 64.1011 570.719 65.3895 571.785 66.6837L573.329 65.4123ZM567.233 61.0518C564.548 59.7527 561.017 58.2897 556.65 56.6629L555.952 58.5371C560.289 60.153 563.756 61.5913 566.361 62.8522L567.233 61.0518ZM556.64 56.6591C554.549 55.9066 552.108 54.8554 549.313 53.5002L548.441 55.2998C551.278 56.6752 553.786 57.7574 555.962 58.5409L556.64 56.6591ZM549.324 53.5056C546.672 52.1797 544.138 50.4777 541.722 48.3946L540.416 49.9094C542.949 52.093 545.62 53.8896 548.43 55.2944L549.324 53.5056ZM541.737 48.4074C539.354 46.2713 537.378 43.7213 535.809 40.7492L534.041 41.6828C535.715 44.8547 537.835 47.5953 540.401 49.8966L541.737 48.4074ZM535.815 40.7592C534.282 37.7742 533.493 34.1414 533.493 29.824H531.493C531.493 34.3813 532.326 38.3432 534.035 41.6728L535.815 40.7592ZM533.493 29.824C533.493 24.7144 534.808 20.3578 537.404 16.7075L535.774 15.5485C532.908 19.5782 531.493 24.3522 531.493 29.824H533.493ZM537.395 16.7194C540.097 13.036 543.701 10.2441 548.239 8.34658L547.467 6.50142C542.618 8.52923 538.714 11.54 535.783 15.5366L537.395 16.7194ZM548.247 8.34314C552.887 6.35436 558.042 5.352 563.725 5.352V3.352C557.803 3.352 552.376 4.39763 547.459 6.50485L548.247 8.34314ZM563.725 5.352C569.591 5.352 574.607 6.3159 578.802 8.20758L579.624 6.38441C575.115 4.35077 569.806 3.352 563.725 3.352V5.352ZM578.808 8.21053C583.148 10.1298 586.705 12.536 589.504 15.4168L590.938 14.0232C587.934 10.9307 584.153 8.38754 579.617 6.38146L578.808 8.21053ZM589.504 15.4168C592.348 18.3449 594.501 21.2921 595.983 24.2552L597.771 23.3608C596.181 20.1799 593.896 17.0684 590.938 14.0232L589.504 15.4168ZM596.39 22.9348L579.878 32.1508L580.852 33.8972L597.364 24.6812L596.39 22.9348ZM581.222 32.5095C579.896 30.298 578.34 28.3845 576.554 26.7767L575.216 28.2633C576.843 29.7275 578.274 31.4833 579.508 33.5385L581.222 32.5095ZM576.592 26.8129C574.882 25.1023 572.938 23.7902 570.766 22.8849L569.996 24.7311C571.92 25.5325 573.646 26.695 575.178 28.2271L576.592 26.8129ZM570.812 22.9059C568.707 21.899 566.425 21.4 563.981 21.4V23.4C566.145 23.4 568.13 23.8397 569.95 24.7101L570.812 22.9059ZM563.981 21.4C560.777 21.4 558.164 22.1104 556.297 23.6831L557.585 25.2129C558.96 24.0549 561.041 23.4 563.981 23.4V21.4ZM556.321 23.6631C554.474 25.1212 553.509 27.0252 553.509 29.312H555.509C555.509 27.6735 556.165 26.3348 557.561 25.2329L556.321 23.6631ZM553.509 29.312C553.509 31.6426 554.395 33.6842 556.106 35.3951L557.52 33.9809C556.159 32.6198 555.509 31.0774 555.509 29.312H553.509ZM556.125 35.4139C557.857 37.0543 560.228 38.5185 563.193 39.8269L564.001 37.9971C561.164 36.7455 559.012 35.3937 557.501 33.962L556.125 35.4139ZM563.203 39.8311C566.218 41.1231 569.825 42.4969 574.021 43.9528L574.677 42.0632C570.51 40.6178 566.95 39.2609 563.991 37.9929L563.203 39.8311ZM573.995 43.9433C577.102 45.1187 579.993 46.502 582.67 48.0919L583.692 46.3721C580.908 44.7194 577.911 43.2866 574.703 42.0727L573.995 43.9433ZM582.691 48.1036C585.334 49.5903 587.64 51.4033 589.614 53.5423L591.084 52.1857C588.962 49.8874 586.49 47.9457 583.671 46.3604L582.691 48.1036ZM589.628 53.5571C591.673 55.6836 593.268 58.1371 594.416 60.9248L596.266 60.1632C595.024 57.1482 593.292 54.4817 591.07 52.1709L589.628 53.5571ZM594.416 60.9248C595.552 63.684 596.133 66.8788 596.133 70.528H598.133C598.133 66.6679 597.519 63.2066 596.266 60.1632L594.416 60.9248ZM596.133 70.528C596.133 74.9084 595.225 78.7993 593.431 82.224L595.203 83.152C597.164 79.4086 598.133 75.193 598.133 70.528H596.133ZM593.427 82.2321C591.704 85.5958 589.328 88.4234 586.29 90.7226L587.496 92.3174C590.773 89.8379 593.346 86.7775 595.207 83.1439L593.427 82.2321ZM586.279 90.7307C583.312 93.0381 579.884 94.7757 575.984 95.9376L576.555 97.8544C580.675 96.627 584.33 94.7805 587.507 92.3094L586.279 90.7307ZM575.959 95.9453C572.135 97.1922 568.186 97.816 564.109 97.816V99.816C568.394 99.816 572.552 99.1598 576.579 97.8467L575.959 95.9453ZM564.109 97.816C558.427 97.816 553.137 96.8138 548.23 94.8177L547.476 96.6703C552.638 98.7702 558.186 99.816 564.109 99.816V97.816ZM548.249 94.8257C543.406 92.7384 539.201 89.9467 535.624 86.4526L534.226 87.8834C537.988 91.5573 542.401 94.483 547.457 96.6623L548.249 94.8257ZM535.624 86.4526C532.031 82.9434 529.244 79.1121 527.251 74.9593L525.447 75.8247C527.55 80.2052 530.48 84.2246 534.226 87.8834L535.624 86.4526ZM526.933 76.2034L542.037 65.3234L540.869 63.7006L525.765 74.5806L526.933 76.2034ZM602.637 25.728H601.637V26.728H602.637V25.728ZM602.637 6.39999V5.39999H601.637V6.39999H602.637ZM673.549 6.39999H674.549V5.39999H673.549V6.39999ZM673.549 25.728V26.728H674.549V25.728H673.549ZM648.845 25.728V24.728H647.845V25.728H648.845ZM648.845 96V97H649.845V96H648.845ZM627.213 96H626.213V97H627.213V96ZM627.213 25.728H628.213V24.728H627.213V25.728ZM603.637 25.728V6.39999H601.637V25.728H603.637ZM602.637 7.39999H673.549V5.39999H602.637V7.39999ZM672.549 6.39999V25.728H674.549V6.39999H672.549ZM673.549 24.728H648.845V26.728H673.549V24.728ZM647.845 25.728V96H649.845V25.728H647.845ZM648.845 95H627.213V97H648.845V95ZM628.213 96V25.728H626.213V96H628.213ZM627.213 24.728H602.637V26.728H627.213V24.728ZM697.683 96H696.683V97H697.683V96ZM697.683 78.208V77.208H696.683V78.208H697.683ZM742.867 78.208H743.867V77.208H742.867V78.208ZM742.867 96V97H743.867V96H742.867ZM697.683 24.192H696.683V25.192H697.683V24.192ZM697.683 6.39999V5.39999H696.683V6.39999H697.683ZM742.867 6.39999H743.867V5.39999H742.867V6.39999ZM742.867 24.192V25.192H743.867V24.192H742.867ZM697.683 57.6H696.683V58.6H697.683V57.6ZM697.683 40.192V39.192H696.683V40.192H697.683ZM740.307 40.192H741.307V39.192H740.307V40.192ZM740.307 57.6V58.6H741.307V57.6H740.307ZM683.347 6.39999V5.39999H682.347V6.39999H683.347ZM704.083 6.39999H705.083V5.39999H704.083V6.39999ZM704.083 96V97H705.083V96H704.083ZM683.347 96H682.347V97H683.347V96ZM698.683 96V78.208H696.683V96H698.683ZM697.683 79.208H742.867V77.208H697.683V79.208ZM741.867 78.208V96H743.867V78.208H741.867ZM742.867 95H697.683V97H742.867V95ZM698.683 24.192V6.39999H696.683V24.192H698.683ZM697.683 7.39999H742.867V5.39999H697.683V7.39999ZM741.867 6.39999V24.192H743.867V6.39999H741.867ZM742.867 23.192H697.683V25.192H742.867V23.192ZM698.683 57.6V40.192H696.683V57.6H698.683ZM697.683 41.192H740.307V39.192H697.683V41.192ZM739.307 40.192V57.6H741.307V40.192H739.307ZM740.307 56.6H697.683V58.6H740.307V56.6ZM683.347 7.39999H704.083V5.39999H683.347V7.39999ZM703.083 6.39999V96H705.083V6.39999H703.083ZM704.083 95H683.347V97H704.083V95ZM684.347 96V6.39999H682.347V96H684.347ZM822.296 6.39999V5.39999H821.296V6.39999H822.296ZM843.16 6.39999H844.16V5.39999H843.16V6.39999ZM843.16 100.48L842.497 101.228L844.16 102.703V100.48H843.16ZM781.208 45.568L781.871 44.8196L780.208 43.3454V45.568H781.208ZM781.208 96V97H782.208V96H781.208ZM760.472 96H759.472V97H760.472V96ZM760.472 1.92L761.136 1.17233L759.472 -0.305698V1.92H760.472ZM822.296 56.832L821.632 57.5797L823.296 59.0577V56.832H822.296ZM822.296 7.39999H843.16V5.39999H822.296V7.39999ZM842.16 6.39999V100.48H844.16V6.39999H842.16ZM843.823 99.7317L781.871 44.8196L780.545 46.3163L842.497 101.228L843.823 99.7317ZM780.208 45.568V96H782.208V45.568H780.208ZM781.208 95H760.472V97H781.208V95ZM761.472 96V1.92H759.472V96H761.472ZM759.808 2.66766L821.632 57.5797L822.96 56.0843L761.136 1.17233L759.808 2.66766ZM823.296 56.832V6.39999H821.296V56.832H823.296ZM862.097 6.39999V5.39999H861.097V6.39999H862.097ZM884.497 6.39999H885.497V5.39999H884.497V6.39999ZM884.497 96V97H885.497V96H884.497ZM862.097 96H861.097V97H862.097V96ZM914.961 6.39999V5.39999H914.503L914.203 5.74714L914.961 6.39999ZM940.305 6.39999L941.061 7.05457L942.494 5.39999H940.305V6.39999ZM903.953 48.384L903.197 47.7294L902.651 48.3602L903.174 49.0105L903.953 48.384ZM942.225 96V97H944.312L943.004 95.3735L942.225 96ZM915.985 96L915.206 96.6265L915.506 97H915.985V96ZM878.225 49.024L877.468 48.3711L876.924 49.0017L877.446 49.6505L878.225 49.024ZM862.097 7.39999H884.497V5.39999H862.097V7.39999ZM883.497 6.39999V96H885.497V6.39999H883.497ZM884.497 95H862.097V97H884.497V95ZM863.097 96V6.39999H861.097V96H863.097ZM914.961 7.39999H940.305V5.39999H914.961V7.39999ZM939.549 5.74541L903.197 47.7294L904.709 49.0386L941.061 7.05457L939.549 5.74541ZM903.174 49.0105L941.446 96.6265L943.004 95.3735L904.732 47.7575L903.174 49.0105ZM942.225 95H915.985V97H942.225V95ZM916.764 95.3735L879.004 48.3975L877.446 49.6505L915.206 96.6265L916.764 95.3735ZM878.982 49.6768L915.719 7.05285L914.203 5.74714L877.468 48.3711L878.982 49.6768ZM966.086 65.28L965.192 65.7272L965.197 65.7385L965.203 65.7496L966.086 65.28ZM974.918 74.752L974.395 75.6044L974.404 75.6095L974.918 74.752ZM1001.54 74.752L1001.03 73.8945L1001.02 73.8997L1001.54 74.752ZM1010.37 65.28L1009.49 64.818L1009.48 64.8252L1010.37 65.28ZM1010.5 37.248L1009.61 37.6952L1009.61 37.7028L1010.5 37.248ZM1001.8 27.648L1002.32 26.7957L1001.8 27.648ZM974.918 27.648L974.403 26.7905L974.395 26.7957L974.918 27.648ZM966.086 37.248L965.199 36.786L965.195 36.7932L966.086 37.248ZM943.686 32.256L942.768 31.8587L942.763 31.8704L943.686 32.256ZM953.926 17.408L953.233 16.6869L953.926 17.408ZM969.286 7.808L969.639 8.74384L969.65 8.73924L969.286 7.808ZM1007.43 7.808L1007.06 8.73742L1007.07 8.74067L1007.08 8.74377L1007.43 7.808ZM1032.9 32.256L1033.82 31.8704V31.8704L1032.9 32.256ZM1032.9 70.272L1031.98 69.8912L1031.97 69.903L1032.9 70.272ZM1022.92 85.376L1022.22 84.6619L1022.21 84.6689L1022.92 85.376ZM1007.69 95.36L1008.05 96.2913L1008.06 96.2866L1007.69 95.36ZM968.902 95.36L968.526 96.2867L968.538 96.2912L968.902 95.36ZM953.542 85.376L952.835 86.0831L952.842 86.0901L953.542 85.376ZM943.558 70.272L942.629 70.6411L942.633 70.6527L943.558 70.272ZM962.014 51.2C962.014 56.6218 963.064 61.4723 965.192 65.7272L966.98 64.8328C965.012 60.8957 964.014 56.3596 964.014 51.2H962.014ZM965.203 65.7496C967.417 69.9125 970.484 73.2041 974.395 75.6043L975.441 73.8997C971.843 71.6919 969.021 68.6688 966.969 64.8104L965.203 65.7496ZM974.404 75.6095C978.42 78.0195 983.083 79.208 988.358 79.208V77.208C983.393 77.208 979.096 76.0925 975.432 73.8945L974.404 75.6095ZM988.358 79.208C993.55 79.208 998.131 78.0181 1002.07 75.6043L1001.02 73.8997C997.443 76.0939 993.235 77.208 988.358 77.208V79.208ZM1002.06 75.6095C1006.06 73.2086 1009.13 69.9113 1011.26 65.7348L1009.48 64.8252C1007.52 68.6701 1004.71 71.6874 1001.03 73.8945L1002.06 75.6095ZM1011.26 65.7419C1013.48 61.4837 1014.57 56.6279 1014.57 51.2H1012.57C1012.57 56.3534 1011.54 60.8842 1009.49 64.8181L1011.26 65.7419ZM1014.57 51.2C1014.57 45.7788 1013.52 40.9674 1011.39 36.7932L1009.61 37.7028C1011.58 41.55 1012.57 46.0399 1012.57 51.2H1014.57ZM1011.4 36.8008C1009.27 32.5446 1006.24 29.2014 1002.32 26.7957L1001.28 28.5003C1004.86 30.7026 1007.64 33.7593 1009.61 37.6952L1011.4 36.8008ZM1002.32 26.7957C998.382 24.3788 993.714 23.192 988.358 23.192V25.192C993.413 25.192 997.704 26.3092 1001.28 28.5003L1002.32 26.7957ZM988.358 23.192C983.083 23.192 978.42 24.3805 974.404 26.7905L975.432 28.5055C979.096 26.3075 983.393 25.192 988.358 25.192V23.192ZM974.395 26.7957C970.478 29.1991 967.412 32.5375 965.199 36.7861L966.973 37.7099C969.027 33.7665 971.848 30.7049 975.441 28.5003L974.395 26.7957ZM965.195 36.7932C963.064 40.9674 962.014 45.7788 962.014 51.2H964.014C964.014 46.0399 965.012 41.55 966.977 37.7028L965.195 36.7932ZM941.102 51.2C941.102 44.4051 942.276 38.2234 944.609 32.6416L942.763 31.8704C940.317 37.7232 939.102 44.1709 939.102 51.2H941.102ZM944.604 32.6532C947.027 27.0537 950.366 22.2155 954.619 18.1291L953.233 16.6869C948.782 20.9632 945.294 26.0236 942.768 31.8588L944.604 32.6532ZM954.619 18.1291C958.869 14.0456 963.872 10.9167 969.639 8.74377L968.933 6.87223C962.924 9.13659 957.687 12.4077 953.233 16.6869L954.619 18.1291ZM969.65 8.73924C975.413 6.48418 981.646 5.352 988.358 5.352V3.352C981.417 3.352 974.935 4.52381 968.922 6.87675L969.65 8.73924ZM988.358 5.352C995.157 5.352 1001.39 6.48479 1007.06 8.73742L1007.8 6.87858C1001.87 4.5232 995.383 3.352 988.358 3.352V5.352ZM1007.08 8.74377C1012.84 10.9167 1017.85 14.0456 1022.1 18.1291L1023.48 16.6869C1019.03 12.4077 1013.79 9.13659 1007.78 6.87223L1007.08 8.74377ZM1022.1 18.1291C1026.35 22.213 1029.64 27.0472 1031.98 32.6416L1033.82 31.8704C1031.38 26.0301 1027.94 20.9657 1023.48 16.6869L1022.1 18.1291ZM1031.98 32.6416C1034.31 38.2234 1035.49 44.4051 1035.49 51.2H1037.49C1037.49 44.1709 1036.27 37.7232 1033.82 31.8704L1031.98 32.6416ZM1035.49 51.2C1035.49 57.9947 1034.31 64.2211 1031.98 69.8913L1033.83 70.6527C1036.27 64.7176 1037.49 58.2293 1037.49 51.2H1035.49ZM1031.97 69.903C1029.72 75.5791 1026.47 80.4954 1022.22 84.6619L1023.62 86.0901C1028.07 81.7232 1031.48 76.5702 1033.83 70.641L1031.97 69.903ZM1022.21 84.6689C1018.04 88.836 1013.08 92.0916 1007.31 94.4334L1008.06 96.2866C1014.07 93.8497 1019.26 90.4493 1023.63 86.0831L1022.21 84.6689ZM1007.32 94.4288C1001.56 96.6827 995.244 97.816 988.358 97.816V99.816C995.467 99.816 1002.03 98.6453 1008.05 96.2912L1007.32 94.4288ZM988.358 97.816C981.385 97.816 975.025 96.6822 969.266 94.4288L968.538 96.2912C974.555 98.6458 981.166 99.816 988.358 99.816V97.816ZM969.278 94.4334C963.506 92.091 958.497 88.8334 954.242 84.6619L952.842 86.0901C957.291 90.4519 962.522 93.8504 968.526 96.2866L969.278 94.4334ZM954.249 84.6689C950.08 80.4993 946.824 75.5768 944.483 69.8913L942.633 70.6527C945.071 76.5725 948.471 81.7194 952.835 86.0831L954.249 84.6689ZM944.487 69.903C942.235 64.2297 941.102 57.9992 941.102 51.2H939.102C939.102 58.2248 940.273 64.709 942.629 70.641L944.487 69.903Z" fill="white" mask="url(#path-1-outside-1_11_22)"/>
</svg>
