<svg width="862" height="95" viewBox="0 0 862 95" fill="none" xmlns="http://www.w3.org/2000/svg">
<mask id="path-1-outside-1_72_61" maskUnits="userSpaceOnUse" x="-1" y="-1" width="865" height="97" fill="black">
<rect fill="white" x="-1" y="-1" width="865" height="97"/>
<path d="M23.264 47.2C23.264 52.4907 24.288 57.184 26.336 61.28C28.4693 65.2907 31.4133 68.448 35.168 70.752C39.008 73.056 43.488 74.208 48.608 74.208C53.6427 74.208 58.0373 73.056 61.792 70.752C65.632 68.448 68.576 65.2907 70.624 61.28C72.7573 57.184 73.824 52.4907 73.824 47.2C73.824 41.9093 72.8 37.2587 70.752 33.248C68.704 29.152 65.8027 25.952 62.048 23.648C58.2933 21.344 53.8133 20.192 48.608 20.192C43.488 20.192 39.008 21.344 35.168 23.648C31.4133 25.952 28.4693 29.152 26.336 33.248C24.288 37.2587 23.264 41.9093 23.264 47.2ZM0.352 47.2C0.352 40.288 1.54667 33.9733 3.936 28.256C6.41067 22.5387 9.824 17.5893 14.176 13.408C18.528 9.22666 23.648 6.02666 29.536 3.808C35.424 1.504 41.7813 0.351997 48.608 0.351997C55.52 0.351997 61.8773 1.504 67.68 3.808C73.568 6.02666 78.688 9.22666 83.04 13.408C87.392 17.5893 90.7627 22.5387 93.152 28.256C95.5413 33.9733 96.736 40.288 96.736 47.2C96.736 54.112 95.5413 60.4693 93.152 66.272C90.848 72.0747 87.52 77.1093 83.168 81.376C78.9013 85.6427 73.824 88.9707 67.936 91.36C62.048 93.664 55.6053 94.816 48.608 94.816C41.5253 94.816 35.04 93.664 29.152 91.36C23.264 88.9707 18.144 85.6427 13.792 81.376C9.52533 77.1093 6.19733 72.0747 3.808 66.272C1.504 60.4693 0.352 54.112 0.352 47.2ZM132.997 51.424H155.397L183.429 92H158.085L132.997 51.424ZM110.597 2.39999H132.229V92H110.597V2.39999ZM124.165 20.704V2.39999H143.237C150.917 2.39999 157.317 3.63733 162.437 6.112C167.557 8.58666 171.44 12.0427 174.085 16.48C176.73 20.832 178.053 25.9093 178.053 31.712C178.053 37.4293 176.73 42.5067 174.085 46.944C171.44 51.296 167.557 54.7093 162.437 57.184C157.317 59.6587 150.917 60.896 143.237 60.896H124.165V44.128H141.701C144.602 44.128 147.077 43.7013 149.125 42.848C151.258 41.9093 152.88 40.5867 153.989 38.88C155.098 37.088 155.653 34.9547 155.653 32.48C155.653 30.0053 155.098 27.9147 153.989 26.208C152.88 24.416 151.258 23.0507 149.125 22.112C147.077 21.1733 144.602 20.704 141.701 20.704H124.165ZM193.472 2.39999H215.744V92H193.472V2.39999ZM225.472 92H207.808V72.8H224.704C228.117 72.8 231.403 72.3733 234.56 71.52C237.803 70.6667 240.619 69.2587 243.008 67.296C245.483 65.3333 247.445 62.7307 248.896 59.488C250.347 56.16 251.072 52.064 251.072 47.2C251.072 42.336 250.347 38.2827 248.896 35.04C247.445 31.712 245.483 29.0667 243.008 27.104C240.619 25.1413 237.803 23.7333 234.56 22.88C231.403 22.0267 228.117 21.6 224.704 21.6H207.808V2.39999H225.472C235.285 2.39999 243.776 4.23466 250.944 7.904C258.112 11.5733 263.659 16.736 267.584 23.392C271.509 30.048 273.472 37.984 273.472 47.2C273.472 56.3307 271.509 64.2667 267.584 71.008C263.659 77.664 258.112 82.8267 250.944 86.496C243.776 90.1653 235.285 92 225.472 92ZM301.683 92V74.208H346.867V92H301.683ZM301.683 20.192V2.39999H346.867V20.192H301.683ZM301.683 53.6V36.192H344.307V53.6H301.683ZM287.347 2.39999H308.083V92H287.347V2.39999ZM386.872 51.424H409.272L437.304 92H411.96L386.872 51.424ZM364.472 2.39999H386.104V92H364.472V2.39999ZM378.04 20.704V2.39999H397.112C404.792 2.39999 411.192 3.63733 416.312 6.112C421.432 8.58666 425.315 12.0427 427.96 16.48C430.605 20.832 431.928 25.9093 431.928 31.712C431.928 37.4293 430.605 42.5067 427.96 46.944C425.315 51.296 421.432 54.7093 416.312 57.184C411.192 59.6587 404.792 60.896 397.112 60.896H378.04V44.128H395.576C398.477 44.128 400.952 43.7013 403 42.848C405.133 41.9093 406.755 40.5867 407.864 38.88C408.973 37.088 409.528 34.9547 409.528 32.48C409.528 30.0053 408.973 27.9147 407.864 26.208C406.755 24.416 405.133 23.0507 403 22.112C400.952 21.1733 398.477 20.704 395.576 20.704H378.04ZM501.85 47.456V37.984H516.314C518.789 37.984 520.879 37.6 522.586 36.832C524.378 36.064 525.743 34.9973 526.682 33.632C527.621 32.1813 528.09 30.432 528.09 28.384C528.09 25.312 527.066 23.008 525.018 21.472C522.97 19.936 520.069 19.168 516.314 19.168H507.354V75.232H518.362C521.178 75.232 523.695 74.8907 525.914 74.208C528.133 73.44 529.882 72.2453 531.162 70.624C532.527 68.9173 533.21 66.6133 533.21 63.712C533.21 61.8347 532.826 60.2133 532.058 58.848C531.29 57.4827 530.223 56.3733 528.858 55.52C527.493 54.6667 525.914 54.0693 524.122 53.728C522.415 53.3013 520.495 53.088 518.362 53.088H501.85V41.312H520.794C525.146 41.312 529.37 41.7813 533.466 42.72C537.562 43.6587 541.274 45.1947 544.602 47.328C547.93 49.376 550.575 52.0213 552.538 55.264C554.586 58.4213 555.61 62.2613 555.61 66.784C555.61 72.7573 554.159 77.5787 551.258 81.248C548.442 84.9173 544.431 87.648 539.226 89.44C534.021 91.1467 527.877 92 520.794 92H485.722V2.39999H518.618C524.847 2.39999 530.309 3.25333 535.002 4.96C539.781 6.58133 543.535 9.09866 546.266 12.512C549.082 15.84 550.49 20.064 550.49 25.184C550.49 29.8773 549.082 33.888 546.266 37.216C543.535 40.544 539.781 43.104 535.002 44.896C530.309 46.6027 524.847 47.456 518.618 47.456H501.85ZM588.514 47.2C588.514 52.4907 589.538 57.184 591.586 61.28C593.719 65.2907 596.663 68.448 600.418 70.752C604.258 73.056 608.738 74.208 613.858 74.208C618.893 74.208 623.287 73.056 627.042 70.752C630.882 68.448 633.826 65.2907 635.874 61.28C638.007 57.184 639.074 52.4907 639.074 47.2C639.074 41.9093 638.05 37.2587 636.002 33.248C633.954 29.152 631.053 25.952 627.298 23.648C623.543 21.344 619.063 20.192 613.858 20.192C608.738 20.192 604.258 21.344 600.418 23.648C596.663 25.952 593.719 29.152 591.586 33.248C589.538 37.2587 588.514 41.9093 588.514 47.2ZM565.602 47.2C565.602 40.288 566.797 33.9733 569.186 28.256C571.661 22.5387 575.074 17.5893 579.426 13.408C583.778 9.22666 588.898 6.02666 594.786 3.808C600.674 1.504 607.031 0.351997 613.858 0.351997C620.77 0.351997 627.127 1.504 632.93 3.808C638.818 6.02666 643.938 9.22666 648.29 13.408C652.642 17.5893 656.013 22.5387 658.402 28.256C660.791 33.9733 661.986 40.288 661.986 47.2C661.986 54.112 660.791 60.4693 658.402 66.272C656.098 72.0747 652.77 77.1093 648.418 81.376C644.151 85.6427 639.074 88.9707 633.186 91.36C627.298 93.664 620.855 94.816 613.858 94.816C606.775 94.816 600.29 93.664 594.402 91.36C588.514 88.9707 583.394 85.6427 579.042 81.376C574.775 77.1093 571.447 72.0747 569.058 66.272C566.754 60.4693 565.602 54.112 565.602 47.2ZM693.639 47.2C693.639 52.4907 694.663 57.184 696.711 61.28C698.844 65.2907 701.788 68.448 705.543 70.752C709.383 73.056 713.863 74.208 718.983 74.208C724.018 74.208 728.412 73.056 732.167 70.752C736.007 68.448 738.951 65.2907 740.999 61.28C743.132 57.184 744.199 52.4907 744.199 47.2C744.199 41.9093 743.175 37.2587 741.127 33.248C739.079 29.152 736.178 25.952 732.423 23.648C728.668 21.344 724.188 20.192 718.983 20.192C713.863 20.192 709.383 21.344 705.543 23.648C701.788 25.952 698.844 29.152 696.711 33.248C694.663 37.2587 693.639 41.9093 693.639 47.2ZM670.727 47.2C670.727 40.288 671.922 33.9733 674.311 28.256C676.786 22.5387 680.199 17.5893 684.551 13.408C688.903 9.22666 694.023 6.02666 699.911 3.808C705.799 1.504 712.156 0.351997 718.983 0.351997C725.895 0.351997 732.252 1.504 738.055 3.808C743.943 6.02666 749.063 9.22666 753.415 13.408C757.767 17.5893 761.138 22.5387 763.527 28.256C765.916 33.9733 767.111 40.288 767.111 47.2C767.111 54.112 765.916 60.4693 763.527 66.272C761.223 72.0747 757.895 77.1093 753.543 81.376C749.276 85.6427 744.199 88.9707 738.311 91.36C732.423 93.664 725.98 94.816 718.983 94.816C711.9 94.816 705.415 93.664 699.527 91.36C693.639 88.9707 688.519 85.6427 684.167 81.376C679.9 77.1093 676.572 72.0747 674.183 66.272C671.879 60.4693 670.727 54.112 670.727 47.2ZM780.972 2.39999H803.372V92H780.972V2.39999ZM833.836 2.39999H859.18L822.828 44.384L861.1 92H834.86L797.1 45.024L833.836 2.39999Z"/>
</mask>
<path d="M26.336 61.28L25.4416 61.7272L25.4472 61.7385L25.4531 61.7496L26.336 61.28ZM35.168 70.752L34.645 71.6044L34.6535 71.6095L35.168 70.752ZM61.792 70.752L61.2775 69.8945L61.269 69.8997L61.792 70.752ZM70.624 61.28L69.7371 60.818L69.7334 60.8252L70.624 61.28ZM70.752 33.248L69.8575 33.6952L69.8614 33.7028L70.752 33.248ZM62.048 23.648L62.571 22.7957L62.571 22.7957L62.048 23.648ZM35.168 23.648L34.6535 22.7905L34.645 22.7957L35.168 23.648ZM26.336 33.248L25.4491 32.786L25.4454 32.7932L26.336 33.248ZM3.936 28.256L3.01821 27.8587L3.01333 27.8704L3.936 28.256ZM14.176 13.408L13.4832 12.6869L14.176 13.408ZM29.536 3.808L29.8886 4.74384L29.9004 4.73924L29.536 3.808ZM67.68 3.808L67.311 4.73741L67.3192 4.74066L67.3274 4.74377L67.68 3.808ZM93.152 28.256L94.0747 27.8704L94.0747 27.8704L93.152 28.256ZM93.152 66.272L92.2273 65.8912L92.2226 65.903L93.152 66.272ZM83.168 81.376L82.4679 80.6619L82.4609 80.6689L83.168 81.376ZM67.936 91.36L68.3004 92.2913L68.312 92.2866L67.936 91.36ZM29.152 91.36L28.776 92.2867L28.7876 92.2912L29.152 91.36ZM13.792 81.376L13.0849 82.0831L13.0919 82.0901L13.792 81.376ZM3.808 66.272L2.87851 66.6411L2.88332 66.6527L3.808 66.272ZM22.264 47.2C22.264 52.6218 23.3141 57.4723 25.4416 61.7272L27.2304 60.8328C25.2619 56.8957 24.264 52.3596 24.264 47.2H22.264ZM25.4531 61.7496C27.6674 65.9125 30.7335 69.2041 34.645 71.6043L35.691 69.8997C32.0932 67.6919 29.2712 64.6688 27.2189 60.8104L25.4531 61.7496ZM34.6535 71.6095C38.6702 74.0195 43.3332 75.208 48.608 75.208V73.208C43.6428 73.208 39.3458 72.0925 35.6825 69.8945L34.6535 71.6095ZM48.608 75.208C53.8003 75.208 58.3815 74.0181 62.315 71.6043L61.269 69.8997C57.6932 72.0939 53.485 73.208 48.608 73.208V75.208ZM62.3065 71.6095C66.3081 69.2086 69.3819 65.9113 71.5146 61.7348L69.7334 60.8252C67.7701 64.6701 64.9559 67.6874 61.2775 69.8945L62.3065 71.6095ZM71.5109 61.7419C73.7287 57.4838 74.824 52.6279 74.824 47.2H72.824C72.824 52.3534 71.786 56.8842 69.7371 60.8181L71.5109 61.7419ZM74.824 47.2C74.824 41.7788 73.7741 36.9674 71.6426 32.7932L69.8614 33.7028C71.8259 37.55 72.824 42.0399 72.824 47.2H74.824ZM71.6464 32.8008C69.5184 28.5446 66.4914 25.2014 62.571 22.7957L61.525 24.5003C65.114 26.7026 67.8896 29.7593 69.8576 33.6952L71.6464 32.8008ZM62.571 22.7957C58.6324 20.3788 53.9641 19.192 48.608 19.192V21.192C53.6626 21.192 57.9543 22.3092 61.525 24.5003L62.571 22.7957ZM48.608 19.192C43.3332 19.192 38.6702 20.3805 34.6535 22.7905L35.6825 24.5055C39.3458 22.3075 43.6428 21.192 48.608 21.192V19.192ZM34.645 22.7957C30.7283 25.1991 27.6619 28.5375 25.4491 32.7861L27.2229 33.7099C29.2768 29.7665 32.0984 26.7049 35.691 24.5003L34.645 22.7957ZM25.4454 32.7932C23.3139 36.9674 22.264 41.7788 22.264 47.2H24.264C24.264 42.0399 25.2621 37.55 27.2266 33.7028L25.4454 32.7932ZM1.352 47.2C1.352 40.4051 2.52596 34.2234 4.85867 28.6416L3.01333 27.8704C0.567369 33.7232 -0.648 40.1709 -0.648 47.2H1.352ZM4.85372 28.6532C7.2774 23.0537 10.6157 18.2155 14.8688 14.1291L13.4832 12.6869C9.03235 16.9632 5.54393 22.0236 3.01828 27.8588L4.85372 28.6532ZM14.8688 14.1291C19.119 10.0456 24.1219 6.91674 29.8886 4.74377L29.1834 2.87223C23.1741 5.13659 17.937 8.4077 13.4832 12.6869L14.8688 14.1291ZM29.9004 4.73924C35.6633 2.48418 41.896 1.352 48.608 1.352V-0.648003C41.6666 -0.648003 35.1847 0.523811 29.1716 2.87676L29.9004 4.73924ZM48.608 1.352C55.4072 1.352 61.6377 2.48479 67.311 4.73741L68.049 2.87858C62.117 0.523202 55.6328 -0.648003 48.608 -0.648003V1.352ZM67.3274 4.74377C73.0941 6.91674 78.097 10.0456 82.3472 14.1291L83.7328 12.6869C79.279 8.4077 74.0419 5.13659 68.0326 2.87223L67.3274 4.74377ZM82.3472 14.1291C86.5977 18.213 89.8914 23.0472 92.2293 28.6416L94.0747 27.8704C91.634 22.0301 88.1863 16.9657 83.7328 12.6869L82.3472 14.1291ZM92.2293 28.6416C94.562 34.2234 95.736 40.4051 95.736 47.2H97.736C97.736 40.1709 96.5206 33.7232 94.0747 27.8704L92.2293 28.6416ZM95.736 47.2C95.736 53.9947 94.5621 60.2211 92.2273 65.8912L94.0767 66.6527C96.5206 60.7176 97.736 54.2293 97.736 47.2H95.736ZM92.2226 65.903C89.9688 71.5791 86.7178 76.4954 82.4679 80.6619L83.8681 82.0901C88.3222 77.7232 91.7272 72.5702 94.0814 66.641L92.2226 65.903ZM82.4609 80.6689C78.2938 84.836 73.3307 88.0916 67.56 90.4334L68.312 92.2866C74.3173 89.8497 79.5089 86.4493 83.8751 82.0831L82.4609 80.6689ZM67.5716 90.4288C61.8115 92.6827 55.4939 93.816 48.608 93.816V95.816C55.7167 95.816 62.2845 94.6453 68.3004 92.2912L67.5716 90.4288ZM48.608 93.816C41.6351 93.816 35.2752 92.6822 29.5164 90.4288L28.7876 92.2912C34.8049 94.6458 41.4156 95.816 48.608 95.816V93.816ZM29.528 90.4334C23.7556 88.091 18.747 84.8334 14.4921 80.6619L13.0919 82.0901C17.541 86.4519 22.7724 89.8504 28.776 92.2866L29.528 90.4334ZM14.4991 80.6689C10.3295 76.4993 7.07379 71.5768 4.73268 65.8912L2.88332 66.6527C5.32087 72.5725 8.72114 77.7193 13.0849 82.0831L14.4991 80.6689ZM4.73742 65.903C2.4848 60.2297 1.352 53.9992 1.352 47.2H-0.648C-0.648 54.2248 0.523205 60.709 2.87858 66.641L4.73742 65.903ZM132.997 51.424V50.424H131.203L132.146 51.9499L132.997 51.424ZM155.397 51.424L156.22 50.8556L155.922 50.424H155.397V51.424ZM183.429 92V93H185.335L184.252 91.4316L183.429 92ZM158.085 92L157.234 92.5259L157.528 93H158.085V92ZM110.597 2.39999V1.39999H109.597V2.39999H110.597ZM132.229 2.39999H133.229V1.39999H132.229V2.39999ZM132.229 92V93H133.229V92H132.229ZM110.597 92H109.597V93H110.597V92ZM124.165 20.704H123.165V21.704H124.165V20.704ZM124.165 2.39999V1.39999H123.165V2.39999H124.165ZM162.437 6.112L162.002 7.01235L162.002 7.01235L162.437 6.112ZM174.085 16.48L173.226 16.9921L173.23 16.9994L174.085 16.48ZM174.085 46.944L174.94 47.4634L174.944 47.4561L174.085 46.944ZM162.437 57.184L162.872 58.0843L162.872 58.0843L162.437 57.184ZM124.165 60.896H123.165V61.896H124.165V60.896ZM124.165 44.128V43.128H123.165V44.128H124.165ZM149.125 42.848L149.51 43.7711L149.519 43.7673L149.528 43.7633L149.125 42.848ZM153.989 38.88L154.827 39.425L154.833 39.4157L154.839 39.4064L153.989 38.88ZM153.989 26.208L153.139 26.7344L153.145 26.7437L153.151 26.753L153.989 26.208ZM149.125 22.112L148.708 23.0211L148.715 23.0242L148.722 23.0273L149.125 22.112ZM132.997 52.424H155.397V50.424H132.997V52.424ZM154.574 51.9924L182.606 92.5684L184.252 91.4316L156.22 50.8556L154.574 51.9924ZM183.429 91H158.085V93H183.429V91ZM158.936 91.4741L133.848 50.8981L132.146 51.9499L157.234 92.5259L158.936 91.4741ZM110.597 3.39999H132.229V1.39999H110.597V3.39999ZM131.229 2.39999V92H133.229V2.39999H131.229ZM132.229 91H110.597V93H132.229V91ZM111.597 92V2.39999H109.597V92H111.597ZM125.165 20.704V2.39999H123.165V20.704H125.165ZM124.165 3.39999H143.237V1.39999H124.165V3.39999ZM143.237 3.39999C150.816 3.39999 157.056 4.62206 162.002 7.01235L162.872 5.21165C157.578 2.65259 151.018 1.39999 143.237 1.39999V3.39999ZM162.002 7.01235C166.964 9.41077 170.691 12.7396 173.226 16.9921L174.944 15.9679C172.188 11.3457 168.15 7.76256 162.872 5.21165L162.002 7.01235ZM173.23 16.9994C175.768 21.174 177.053 26.0664 177.053 31.712H179.053C179.053 25.7522 177.693 20.49 174.94 15.9606L173.23 16.9994ZM177.053 31.712C177.053 37.2688 175.769 42.1656 173.226 46.4319L174.944 47.4561C177.691 42.8477 179.053 37.5898 179.053 31.712H177.053ZM173.23 46.4246C170.697 50.593 166.969 53.8828 162.002 56.2836L162.872 58.0843C168.145 55.5359 172.183 51.999 174.94 47.4634L173.23 46.4246ZM162.002 56.2836C157.056 58.6739 150.816 59.896 143.237 59.896V61.896C151.018 61.896 157.578 60.6434 162.872 58.0843L162.002 56.2836ZM143.237 59.896H124.165V61.896H143.237V59.896ZM125.165 60.896V44.128H123.165V60.896H125.165ZM124.165 45.128H141.701V43.128H124.165V45.128ZM141.701 45.128C144.696 45.128 147.309 44.6882 149.51 43.7711L148.74 41.9249C146.845 42.7145 144.509 43.128 141.701 43.128V45.128ZM149.528 43.7633C151.813 42.7579 153.597 41.3176 154.827 39.425L153.151 38.335C152.162 39.8557 150.704 41.0607 148.722 41.9327L149.528 43.7633ZM154.839 39.4064C156.062 37.4305 156.653 35.1078 156.653 32.48H154.653C154.653 34.8016 154.134 36.7455 153.139 38.3536L154.839 39.4064ZM156.653 32.48C156.653 29.8539 156.063 27.5639 154.827 25.663L153.151 26.753C154.134 28.2654 154.653 30.1567 154.653 32.48H156.653ZM154.839 25.6816C153.612 23.6997 151.826 22.2078 149.528 21.1967L148.722 23.0273C150.691 23.8935 152.147 25.1323 153.139 26.7344L154.839 25.6816ZM149.542 21.2029C147.331 20.1897 144.706 19.704 141.701 19.704V21.704C144.498 21.704 146.823 22.1569 148.708 23.0211L149.542 21.2029ZM141.701 19.704H124.165V21.704H141.701V19.704ZM193.472 2.39999V1.39999H192.472V2.39999H193.472ZM215.744 2.39999H216.744V1.39999H215.744V2.39999ZM215.744 92V93H216.744V92H215.744ZM193.472 92H192.472V93H193.472V92ZM207.808 92H206.808V93H207.808V92ZM207.808 72.8V71.8H206.808V72.8H207.808ZM234.56 71.52L234.306 70.5529L234.299 70.5546L234.56 71.52ZM243.008 67.296L242.387 66.5125L242.38 66.5178L242.373 66.5233L243.008 67.296ZM248.896 59.488L249.809 59.8964L249.813 59.8876L248.896 59.488ZM248.896 35.04L247.979 35.4396L247.983 35.4484L248.896 35.04ZM243.008 27.104L242.373 27.8767L242.38 27.8822L242.387 27.8875L243.008 27.104ZM234.56 22.88L234.299 23.8454L234.306 23.8471L234.56 22.88ZM207.808 21.6H206.808V22.6H207.808V21.6ZM207.808 2.39999V1.39999H206.808V2.39999H207.808ZM250.944 7.904L250.488 8.79415L250.488 8.79415L250.944 7.904ZM267.584 23.392L266.723 23.9L266.723 23.9L267.584 23.392ZM267.584 71.008L268.445 71.516L268.448 71.5112L267.584 71.008ZM250.944 86.496L250.488 85.6059L250.488 85.6059L250.944 86.496ZM193.472 3.39999H215.744V1.39999H193.472V3.39999ZM214.744 2.39999V92H216.744V2.39999H214.744ZM215.744 91H193.472V93H215.744V91ZM194.472 92V2.39999H192.472V92H194.472ZM225.472 91H207.808V93H225.472V91ZM208.808 92V72.8H206.808V92H208.808ZM207.808 73.8H224.704V71.8H207.808V73.8ZM224.704 73.8C228.202 73.8 231.575 73.3627 234.821 72.4854L234.299 70.5546C231.23 71.384 228.033 71.8 224.704 71.8V73.8ZM234.814 72.4871C238.185 71.6002 241.133 70.1303 243.643 68.0687L242.373 66.5233C240.104 68.387 237.421 69.7331 234.306 70.5529L234.814 72.4871ZM243.629 68.0795C246.245 66.0051 248.301 63.2672 249.809 59.8964L247.983 59.0796C246.59 62.1942 244.72 64.6615 242.387 66.5125L243.629 68.0795ZM249.813 59.8876C251.334 56.3985 252.072 52.1573 252.072 47.2H250.072C250.072 51.9707 249.36 55.9215 247.979 59.0884L249.813 59.8876ZM252.072 47.2C252.072 42.2441 251.334 38.0409 249.809 34.6316L247.983 35.4484C249.359 38.5244 250.072 42.4279 250.072 47.2H252.072ZM249.813 34.6404C248.306 31.1848 246.25 28.3993 243.629 26.3205L242.387 27.8875C244.715 29.734 246.584 32.2392 247.979 35.4396L249.813 34.6404ZM243.643 26.3313C241.133 24.2697 238.185 22.7998 234.814 21.9129L234.306 23.8471C237.421 24.6669 240.104 26.013 242.373 27.8767L243.643 26.3313ZM234.821 21.9146C231.575 21.0373 228.202 20.6 224.704 20.6V22.6C228.033 22.6 231.23 23.016 234.299 23.8454L234.821 21.9146ZM224.704 20.6H207.808V22.6H224.704V20.6ZM208.808 21.6V2.39999H206.808V21.6H208.808ZM207.808 3.39999H225.472V1.39999H207.808V3.39999ZM225.472 3.39999C235.161 3.39999 243.489 5.21112 250.488 8.79415L251.4 7.01385C244.063 3.2582 235.41 1.39999 225.472 1.39999V3.39999ZM250.488 8.79415C257.495 12.3809 262.898 17.4143 266.723 23.9L268.445 22.884C264.42 16.0577 258.729 10.7657 251.4 7.01385L250.488 8.79415ZM266.723 23.9C270.541 30.3748 272.472 38.1281 272.472 47.2H274.472C274.472 37.8399 272.478 29.7212 268.445 22.884L266.723 23.9ZM272.472 47.2C272.472 56.1843 270.542 63.9406 266.72 70.5048L268.448 71.5112C272.477 64.5928 274.472 56.477 274.472 47.2H272.472ZM266.723 70.5C262.898 76.9857 257.495 82.0191 250.488 85.6059L251.4 87.3861C258.729 83.6343 264.42 78.3423 268.445 71.516L266.723 70.5ZM250.488 85.6059C243.489 89.1889 235.161 91 225.472 91V93C235.41 93 244.063 91.1418 251.4 87.3861L250.488 85.6059ZM301.683 92H300.683V93H301.683V92ZM301.683 74.208V73.208H300.683V74.208H301.683ZM346.867 74.208H347.867V73.208H346.867V74.208ZM346.867 92V93H347.867V92H346.867ZM301.683 20.192H300.683V21.192H301.683V20.192ZM301.683 2.39999V1.39999H300.683V2.39999H301.683ZM346.867 2.39999H347.867V1.39999H346.867V2.39999ZM346.867 20.192V21.192H347.867V20.192H346.867ZM301.683 53.6H300.683V54.6H301.683V53.6ZM301.683 36.192V35.192H300.683V36.192H301.683ZM344.307 36.192H345.307V35.192H344.307V36.192ZM344.307 53.6V54.6H345.307V53.6H344.307ZM287.347 2.39999V1.39999H286.347V2.39999H287.347ZM308.083 2.39999H309.083V1.39999H308.083V2.39999ZM308.083 92V93H309.083V92H308.083ZM287.347 92H286.347V93H287.347V92ZM302.683 92V74.208H300.683V92H302.683ZM301.683 75.208H346.867V73.208H301.683V75.208ZM345.867 74.208V92H347.867V74.208H345.867ZM346.867 91H301.683V93H346.867V91ZM302.683 20.192V2.39999H300.683V20.192H302.683ZM301.683 3.39999H346.867V1.39999H301.683V3.39999ZM345.867 2.39999V20.192H347.867V2.39999H345.867ZM346.867 19.192H301.683V21.192H346.867V19.192ZM302.683 53.6V36.192H300.683V53.6H302.683ZM301.683 37.192H344.307V35.192H301.683V37.192ZM343.307 36.192V53.6H345.307V36.192H343.307ZM344.307 52.6H301.683V54.6H344.307V52.6ZM287.347 3.39999H308.083V1.39999H287.347V3.39999ZM307.083 2.39999V92H309.083V2.39999H307.083ZM308.083 91H287.347V93H308.083V91ZM288.347 92V2.39999H286.347V92H288.347ZM386.872 51.424V50.424H385.078L386.021 51.9499L386.872 51.424ZM409.272 51.424L410.095 50.8556L409.797 50.424H409.272V51.424ZM437.304 92V93H439.21L438.127 91.4316L437.304 92ZM411.96 92L411.109 92.5259L411.403 93H411.96V92ZM364.472 2.39999V1.39999H363.472V2.39999H364.472ZM386.104 2.39999H387.104V1.39999H386.104V2.39999ZM386.104 92V93H387.104V92H386.104ZM364.472 92H363.472V93H364.472V92ZM378.04 20.704H377.04V21.704H378.04V20.704ZM378.04 2.39999V1.39999H377.04V2.39999H378.04ZM416.312 6.112L415.877 7.01235L415.877 7.01235L416.312 6.112ZM427.96 16.48L427.101 16.9921L427.105 16.9994L427.96 16.48ZM427.96 46.944L428.815 47.4634L428.819 47.4561L427.96 46.944ZM416.312 57.184L416.747 58.0843L416.747 58.0843L416.312 57.184ZM378.04 60.896H377.04V61.896H378.04V60.896ZM378.04 44.128V43.128H377.04V44.128H378.04ZM403 42.848L403.385 43.7711L403.394 43.7673L403.403 43.7633L403 42.848ZM407.864 38.88L408.702 39.425L408.708 39.4157L408.714 39.4064L407.864 38.88ZM407.864 26.208L407.014 26.7344L407.02 26.7437L407.026 26.753L407.864 26.208ZM403 22.112L402.583 23.0211L402.59 23.0242L402.597 23.0273L403 22.112ZM386.872 52.424H409.272V50.424H386.872V52.424ZM408.449 51.9924L436.481 92.5684L438.127 91.4316L410.095 50.8556L408.449 51.9924ZM437.304 91H411.96V93H437.304V91ZM412.811 91.4741L387.723 50.8981L386.021 51.9499L411.109 92.5259L412.811 91.4741ZM364.472 3.39999H386.104V1.39999H364.472V3.39999ZM385.104 2.39999V92H387.104V2.39999H385.104ZM386.104 91H364.472V93H386.104V91ZM365.472 92V2.39999H363.472V92H365.472ZM379.04 20.704V2.39999H377.04V20.704H379.04ZM378.04 3.39999H397.112V1.39999H378.04V3.39999ZM397.112 3.39999C404.691 3.39999 410.931 4.62206 415.877 7.01235L416.747 5.21165C411.453 2.65259 404.893 1.39999 397.112 1.39999V3.39999ZM415.877 7.01235C420.839 9.41077 424.566 12.7396 427.101 16.9921L428.819 15.9679C426.063 11.3457 422.025 7.76256 416.747 5.21165L415.877 7.01235ZM427.105 16.9994C429.643 21.174 430.928 26.0664 430.928 31.712H432.928C432.928 25.7522 431.568 20.49 428.815 15.9606L427.105 16.9994ZM430.928 31.712C430.928 37.2688 429.644 42.1656 427.101 46.4319L428.819 47.4561C431.566 42.8477 432.928 37.5898 432.928 31.712H430.928ZM427.105 46.4246C424.572 50.593 420.844 53.8828 415.877 56.2836L416.747 58.0843C422.02 55.5359 426.058 51.999 428.815 47.4634L427.105 46.4246ZM415.877 56.2836C410.931 58.6739 404.691 59.896 397.112 59.896V61.896C404.893 61.896 411.453 60.6434 416.747 58.0843L415.877 56.2836ZM397.112 59.896H378.04V61.896H397.112V59.896ZM379.04 60.896V44.128H377.04V60.896H379.04ZM378.04 45.128H395.576V43.128H378.04V45.128ZM395.576 45.128C398.571 45.128 401.184 44.6882 403.385 43.7711L402.615 41.9249C400.72 42.7145 398.384 43.128 395.576 43.128V45.128ZM403.403 43.7633C405.688 42.7579 407.472 41.3176 408.702 39.425L407.026 38.335C406.037 39.8557 404.579 41.0607 402.597 41.9327L403.403 43.7633ZM408.714 39.4064C409.937 37.4305 410.528 35.1078 410.528 32.48H408.528C408.528 34.8016 408.009 36.7455 407.014 38.3536L408.714 39.4064ZM410.528 32.48C410.528 29.8539 409.938 27.5639 408.702 25.663L407.026 26.753C408.009 28.2654 408.528 30.1567 408.528 32.48H410.528ZM408.714 25.6816C407.487 23.6997 405.701 22.2078 403.403 21.1967L402.597 23.0273C404.566 23.8935 406.022 25.1323 407.014 26.7344L408.714 25.6816ZM403.417 21.2029C401.206 20.1897 398.581 19.704 395.576 19.704V21.704C398.373 21.704 400.698 22.1569 402.583 23.0211L403.417 21.2029ZM395.576 19.704H378.04V21.704H395.576V19.704ZM501.85 47.456H500.85V48.456H501.85V47.456ZM501.85 37.984V36.984H500.85V37.984H501.85ZM522.586 36.832L522.192 35.9129L522.184 35.9164L522.176 35.9201L522.586 36.832ZM526.682 33.632L527.506 34.1985L527.514 34.187L527.522 34.1752L526.682 33.632ZM525.018 21.472L524.418 22.272L524.418 22.272L525.018 21.472ZM507.354 19.168V18.168H506.354V19.168H507.354ZM507.354 75.232H506.354V76.232H507.354V75.232ZM525.914 74.208L526.208 75.1638L526.225 75.1587L526.241 75.153L525.914 74.208ZM531.162 70.624L530.381 69.9993L530.377 70.0044L531.162 70.624ZM532.058 58.848L531.186 59.3383L531.186 59.3383L532.058 58.848ZM528.858 55.52L529.388 54.672L529.388 54.672L528.858 55.52ZM524.122 53.728L523.879 54.6981L523.907 54.705L523.935 54.7103L524.122 53.728ZM501.85 53.088H500.85V54.088H501.85V53.088ZM501.85 41.312V40.312H500.85V41.312H501.85ZM544.602 47.328L544.062 48.1699L544.07 48.1748L544.078 48.1797L544.602 47.328ZM552.538 55.264L551.683 55.7818L551.691 55.7951L551.699 55.8082L552.538 55.264ZM551.258 81.248L550.474 80.6278L550.469 80.6334L550.465 80.6392L551.258 81.248ZM539.226 89.44L539.538 90.3902L539.545 90.3879L539.552 90.3855L539.226 89.44ZM485.722 92H484.722V93H485.722V92ZM485.722 2.39999V1.39999H484.722V2.39999H485.722ZM535.002 4.96L534.66 5.89979L534.67 5.9035L534.681 5.90698L535.002 4.96ZM546.266 12.512L545.485 13.1367L545.494 13.1474L545.503 13.1579L546.266 12.512ZM546.266 37.216L545.503 36.5701L545.498 36.5758L545.493 36.5817L546.266 37.216ZM535.002 44.896L535.344 45.8358L535.353 45.8323L535.002 44.896ZM502.85 47.456V37.984H500.85V47.456H502.85ZM501.85 38.984H516.314V36.984H501.85V38.984ZM516.314 38.984C518.887 38.984 521.126 38.5855 522.996 37.7439L522.176 35.9201C520.632 36.6145 518.691 36.984 516.314 36.984V38.984ZM522.98 37.7511C524.915 36.922 526.443 35.7455 527.506 34.1985L525.858 33.0655C525.044 34.2492 523.841 35.206 522.192 35.9129L522.98 37.7511ZM527.522 34.1752C528.583 32.5348 529.09 30.5885 529.09 28.384H527.09C527.09 30.2755 526.658 31.8279 525.842 33.0887L527.522 34.1752ZM529.09 28.384C529.09 25.068 527.97 22.4356 525.618 20.672L524.418 22.272C526.163 23.5804 527.09 25.556 527.09 28.384H529.09ZM525.618 20.672C523.333 18.9581 520.188 18.168 516.314 18.168V20.168C519.949 20.168 522.607 20.9139 524.418 22.272L525.618 20.672ZM516.314 18.168H507.354V20.168H516.314V18.168ZM506.354 19.168V75.232H508.354V19.168H506.354ZM507.354 76.232H518.362V74.232H507.354V76.232ZM518.362 76.232C521.257 76.232 523.876 75.8812 526.208 75.1638L525.62 73.2522C523.514 73.9001 521.099 74.232 518.362 74.232V76.232ZM526.241 75.153C528.615 74.3313 530.533 73.0347 531.947 71.2436L530.377 70.0044C529.231 71.456 527.65 72.5487 525.587 73.263L526.241 75.153ZM531.943 71.2487C533.491 69.3141 534.21 66.7659 534.21 63.712H532.21C532.21 66.4608 531.564 68.5205 530.381 69.9993L531.943 71.2487ZM534.21 63.712C534.21 61.697 533.797 59.8999 532.93 58.3577L531.186 59.3383C531.855 60.5268 532.21 61.9724 532.21 63.712H534.21ZM532.93 58.3577C532.077 56.8423 530.891 55.6115 529.388 54.672L528.328 56.368C529.555 57.1351 530.503 58.1231 531.186 59.3383L532.93 58.3577ZM529.388 54.672C527.905 53.7449 526.207 53.1071 524.309 52.7457L523.935 54.7103C525.621 55.0316 527.081 55.5884 528.328 56.368L529.388 54.672ZM524.365 52.7579C522.564 52.3077 520.56 52.088 518.362 52.088V54.088C520.43 54.088 522.267 54.295 523.879 54.6981L524.365 52.7579ZM518.362 52.088H501.85V54.088H518.362V52.088ZM502.85 53.088V41.312H500.85V53.088H502.85ZM501.85 42.312H520.794V40.312H501.85V42.312ZM520.794 42.312C525.074 42.312 529.222 42.7734 533.243 43.6947L533.689 41.7453C529.518 40.7892 525.218 40.312 520.794 40.312V42.312ZM533.243 43.6947C537.233 44.6093 540.837 46.1025 544.062 48.1699L545.142 46.4861C541.711 44.2868 537.891 42.708 533.689 41.7453L533.243 43.6947ZM544.078 48.1797C547.275 50.147 549.805 52.6795 551.683 55.7818L553.394 54.7462C551.346 51.3632 548.585 48.605 545.126 46.4763L544.078 48.1797ZM551.699 55.8082C553.622 58.7733 554.61 62.4151 554.61 66.784H556.61C556.61 62.1076 555.55 58.0694 553.377 54.7198L551.699 55.8082ZM554.61 66.784C554.61 72.5955 553.201 77.1789 550.474 80.6278L552.042 81.8682C555.118 77.9784 556.61 72.9192 556.61 66.784H554.61ZM550.465 80.6392C547.789 84.1252 543.956 86.754 538.9 88.4945L539.552 90.3855C544.907 88.542 549.095 85.7095 552.051 81.8568L550.465 80.6392ZM538.914 88.4898C533.834 90.1554 527.8 91 520.794 91V93C527.953 93 534.207 92.1379 539.538 90.3902L538.914 88.4898ZM520.794 91H485.722V93H520.794V91ZM486.722 92V2.39999H484.722V92H486.722ZM485.722 3.39999H518.618V1.39999H485.722V3.39999ZM518.618 3.39999C524.758 3.39999 530.1 4.24143 534.66 5.89979L535.344 4.02021C530.518 2.26523 524.936 1.39999 518.618 1.39999V3.39999ZM534.681 5.90698C539.307 7.47665 542.891 9.89438 545.485 13.1367L547.047 11.8873C544.179 8.30295 540.254 5.68601 535.323 4.01302L534.681 5.90698ZM545.503 13.1579C548.14 16.2748 549.49 20.2571 549.49 25.184H551.49C551.49 19.8709 550.024 15.4052 547.029 11.8661L545.503 13.1579ZM549.49 25.184C549.49 29.6603 548.154 33.437 545.503 36.5701L547.029 37.8619C550.01 34.339 551.49 30.0943 551.49 25.184H549.49ZM545.493 36.5817C542.893 39.7503 539.295 42.2179 534.651 43.9597L535.353 45.8323C540.266 43.9901 544.178 41.3377 547.039 37.8503L545.493 36.5817ZM534.66 43.9562C530.1 45.6146 524.758 46.456 518.618 46.456V48.456C524.936 48.456 530.518 47.5908 535.344 45.8358L534.66 43.9562ZM518.618 46.456H501.85V48.456H518.618V46.456ZM591.586 61.28L590.692 61.7272L590.697 61.7385L590.703 61.7496L591.586 61.28ZM600.418 70.752L599.895 71.6044L599.904 71.6095L600.418 70.752ZM627.042 70.752L626.527 69.8945L626.519 69.8997L627.042 70.752ZM635.874 61.28L634.987 60.818L634.983 60.8252L635.874 61.28ZM636.002 33.248L635.108 33.6952L635.111 33.7028L636.002 33.248ZM627.298 23.648L627.821 22.7957L627.821 22.7957L627.298 23.648ZM600.418 23.648L599.903 22.7905L599.895 22.7957L600.418 23.648ZM591.586 33.248L590.699 32.786L590.695 32.7932L591.586 33.248ZM569.186 28.256L568.268 27.8587L568.263 27.8704L569.186 28.256ZM579.426 13.408L578.733 12.6869L579.426 13.408ZM594.786 3.808L595.139 4.74384L595.15 4.73924L594.786 3.808ZM632.93 3.808L632.561 4.73741L632.569 4.74066L632.577 4.74377L632.93 3.808ZM658.402 28.256L659.325 27.8704L659.325 27.8704L658.402 28.256ZM658.402 66.272L657.477 65.8912L657.473 65.903L658.402 66.272ZM648.418 81.376L647.718 80.6619L647.711 80.6689L648.418 81.376ZM633.186 91.36L633.55 92.2913L633.562 92.2866L633.186 91.36ZM594.402 91.36L594.026 92.2867L594.038 92.2912L594.402 91.36ZM579.042 81.376L578.335 82.0831L578.342 82.0901L579.042 81.376ZM569.058 66.272L568.129 66.6411L568.133 66.6527L569.058 66.272ZM587.514 47.2C587.514 52.6218 588.564 57.4723 590.692 61.7272L592.48 60.8328C590.512 56.8957 589.514 52.3596 589.514 47.2H587.514ZM590.703 61.7496C592.917 65.9125 595.984 69.2041 599.895 71.6043L600.941 69.8997C597.343 67.6919 594.521 64.6688 592.469 60.8104L590.703 61.7496ZM599.904 71.6095C603.92 74.0195 608.583 75.208 613.858 75.208V73.208C608.893 73.208 604.596 72.0925 600.932 69.8945L599.904 71.6095ZM613.858 75.208C619.05 75.208 623.632 74.0181 627.565 71.6043L626.519 69.8997C622.943 72.0939 618.735 73.208 613.858 73.208V75.208ZM627.556 71.6095C631.558 69.2086 634.632 65.9113 636.765 61.7348L634.983 60.8252C633.02 64.6701 630.206 67.6874 626.528 69.8945L627.556 71.6095ZM636.761 61.7419C638.979 57.4838 640.074 52.6279 640.074 47.2H638.074C638.074 52.3534 637.036 56.8842 634.987 60.8181L636.761 61.7419ZM640.074 47.2C640.074 41.7788 639.024 36.9674 636.893 32.7932L635.111 33.7028C637.076 37.55 638.074 42.0399 638.074 47.2H640.074ZM636.896 32.8008C634.768 28.5446 631.741 25.2014 627.821 22.7957L626.775 24.5003C630.364 26.7026 633.14 29.7593 635.108 33.6952L636.896 32.8008ZM627.821 22.7957C623.882 20.3788 619.214 19.192 613.858 19.192V21.192C618.913 21.192 623.204 22.3092 626.775 24.5003L627.821 22.7957ZM613.858 19.192C608.583 19.192 603.92 20.3805 599.904 22.7905L600.932 24.5055C604.596 22.3075 608.893 21.192 613.858 21.192V19.192ZM599.895 22.7957C595.978 25.1991 592.912 28.5375 590.699 32.7861L592.473 33.7099C594.527 29.7665 597.348 26.7049 600.941 24.5003L599.895 22.7957ZM590.695 32.7932C588.564 36.9674 587.514 41.7788 587.514 47.2H589.514C589.514 42.0399 590.512 37.55 592.477 33.7028L590.695 32.7932ZM566.602 47.2C566.602 40.4051 567.776 34.2234 570.109 28.6416L568.263 27.8704C565.817 33.7232 564.602 40.1709 564.602 47.2H566.602ZM570.104 28.6532C572.527 23.0537 575.866 18.2155 580.119 14.1291L578.733 12.6869C574.282 16.9632 570.794 22.0236 568.268 27.8588L570.104 28.6532ZM580.119 14.1291C584.369 10.0456 589.372 6.91674 595.139 4.74377L594.433 2.87223C588.424 5.13659 583.187 8.4077 578.733 12.6869L580.119 14.1291ZM595.15 4.73924C600.913 2.48418 607.146 1.352 613.858 1.352V-0.648003C606.917 -0.648003 600.435 0.523811 594.422 2.87676L595.15 4.73924ZM613.858 1.352C620.657 1.352 626.888 2.48479 632.561 4.73741L633.299 2.87858C627.367 0.523202 620.883 -0.648003 613.858 -0.648003V1.352ZM632.577 4.74377C638.344 6.91674 643.347 10.0456 647.597 14.1291L648.983 12.6869C644.529 8.4077 639.292 5.13659 633.283 2.87223L632.577 4.74377ZM647.597 14.1291C651.848 18.213 655.141 23.0472 657.479 28.6416L659.325 27.8704C656.884 22.0301 653.436 16.9657 648.983 12.6869L647.597 14.1291ZM657.479 28.6416C659.812 34.2234 660.986 40.4051 660.986 47.2H662.986C662.986 40.1709 661.771 33.7232 659.325 27.8704L657.479 28.6416ZM660.986 47.2C660.986 53.9947 659.812 60.2211 657.477 65.8912L659.327 66.6527C661.771 60.7176 662.986 54.2293 662.986 47.2H660.986ZM657.473 65.903C655.219 71.5791 651.968 76.4954 647.718 80.6619L649.118 82.0901C653.572 77.7232 656.977 72.5702 659.331 66.641L657.473 65.903ZM647.711 80.6689C643.544 84.836 638.581 88.0916 632.81 90.4334L633.562 92.2866C639.567 89.8497 644.759 86.4493 649.125 82.0831L647.711 80.6689ZM632.822 90.4288C627.061 92.6827 620.744 93.816 613.858 93.816V95.816C620.967 95.816 627.535 94.6453 633.55 92.2912L632.822 90.4288ZM613.858 93.816C606.885 93.816 600.525 92.6822 594.766 90.4288L594.038 92.2912C600.055 94.6458 606.666 95.816 613.858 95.816V93.816ZM594.778 90.4334C589.006 88.091 583.997 84.8334 579.742 80.6619L578.342 82.0901C582.791 86.4519 588.022 89.8504 594.026 92.2866L594.778 90.4334ZM579.749 80.6689C575.58 76.4993 572.324 71.5768 569.983 65.8912L568.133 66.6527C570.571 72.5725 573.971 77.7193 578.335 82.0831L579.749 80.6689ZM569.987 65.903C567.735 60.2297 566.602 53.9992 566.602 47.2H564.602C564.602 54.2248 565.773 60.709 568.129 66.641L569.987 65.903ZM696.711 61.28L695.817 61.7272L695.822 61.7385L695.828 61.7496L696.711 61.28ZM705.543 70.752L705.02 71.6044L705.029 71.6095L705.543 70.752ZM732.167 70.752L731.652 69.8945L731.644 69.8997L732.167 70.752ZM740.999 61.28L740.112 60.818L740.108 60.8252L740.999 61.28ZM741.127 33.248L740.233 33.6952L740.236 33.7028L741.127 33.248ZM732.423 23.648L732.946 22.7957L732.946 22.7957L732.423 23.648ZM705.543 23.648L705.028 22.7905L705.02 22.7957L705.543 23.648ZM696.711 33.248L695.824 32.786L695.82 32.7932L696.711 33.248ZM674.311 28.256L673.393 27.8587L673.388 27.8704L674.311 28.256ZM684.551 13.408L683.858 12.6869L684.551 13.408ZM699.911 3.808L700.264 4.74384L700.275 4.73924L699.911 3.808ZM738.055 3.808L737.686 4.73741L737.694 4.74066L737.702 4.74377L738.055 3.808ZM763.527 28.256L764.45 27.8704L764.45 27.8704L763.527 28.256ZM763.527 66.272L762.602 65.8912L762.598 65.903L763.527 66.272ZM753.543 81.376L752.843 80.6619L752.836 80.6689L753.543 81.376ZM738.311 91.36L738.675 92.2913L738.687 92.2866L738.311 91.36ZM699.527 91.36L699.151 92.2867L699.163 92.2912L699.527 91.36ZM684.167 81.376L683.46 82.0831L683.467 82.0901L684.167 81.376ZM674.183 66.272L673.254 66.6411L673.258 66.6527L674.183 66.272ZM692.639 47.2C692.639 52.6218 693.689 57.4723 695.817 61.7272L697.605 60.8328C695.637 56.8957 694.639 52.3596 694.639 47.2H692.639ZM695.828 61.7496C698.042 65.9125 701.109 69.2041 705.02 71.6043L706.066 69.8997C702.468 67.6919 699.646 64.6688 697.594 60.8104L695.828 61.7496ZM705.029 71.6095C709.045 74.0195 713.708 75.208 718.983 75.208V73.208C714.018 73.208 709.721 72.0925 706.057 69.8945L705.029 71.6095ZM718.983 75.208C724.175 75.208 728.757 74.0181 732.69 71.6043L731.644 69.8997C728.068 72.0939 723.86 73.208 718.983 73.208V75.208ZM732.681 71.6095C736.683 69.2086 739.757 65.9113 741.89 61.7348L740.108 60.8252C738.145 64.6701 735.331 67.6874 731.653 69.8945L732.681 71.6095ZM741.886 61.7419C744.104 57.4838 745.199 52.6279 745.199 47.2H743.199C743.199 52.3534 742.161 56.8842 740.112 60.8181L741.886 61.7419ZM745.199 47.2C745.199 41.7788 744.149 36.9674 742.018 32.7932L740.236 33.7028C742.201 37.55 743.199 42.0399 743.199 47.2H745.199ZM742.021 32.8008C739.893 28.5446 736.866 25.2014 732.946 22.7957L731.9 24.5003C735.489 26.7026 738.265 29.7593 740.233 33.6952L742.021 32.8008ZM732.946 22.7957C729.007 20.3788 724.339 19.192 718.983 19.192V21.192C724.038 21.192 728.329 22.3092 731.9 24.5003L732.946 22.7957ZM718.983 19.192C713.708 19.192 709.045 20.3805 705.029 22.7905L706.057 24.5055C709.721 22.3075 714.018 21.192 718.983 21.192V19.192ZM705.02 22.7957C701.103 25.1991 698.037 28.5375 695.824 32.7861L697.598 33.7099C699.652 29.7665 702.473 26.7049 706.066 24.5003L705.02 22.7957ZM695.82 32.7932C693.689 36.9674 692.639 41.7788 692.639 47.2H694.639C694.639 42.0399 695.637 37.55 697.602 33.7028L695.82 32.7932ZM671.727 47.2C671.727 40.4051 672.901 34.2234 675.234 28.6416L673.388 27.8704C670.942 33.7232 669.727 40.1709 669.727 47.2H671.727ZM675.229 28.6532C677.652 23.0537 680.991 18.2155 685.244 14.1291L683.858 12.6869C679.407 16.9632 675.919 22.0236 673.393 27.8588L675.229 28.6532ZM685.244 14.1291C689.494 10.0456 694.497 6.91674 700.264 4.74377L699.558 2.87223C693.549 5.13659 688.312 8.4077 683.858 12.6869L685.244 14.1291ZM700.275 4.73924C706.038 2.48418 712.271 1.352 718.983 1.352V-0.648003C712.042 -0.648003 705.56 0.523811 699.547 2.87676L700.275 4.73924ZM718.983 1.352C725.782 1.352 732.013 2.48479 737.686 4.73741L738.424 2.87858C732.492 0.523202 726.008 -0.648003 718.983 -0.648003V1.352ZM737.702 4.74377C743.469 6.91674 748.472 10.0456 752.722 14.1291L754.108 12.6869C749.654 8.4077 744.417 5.13659 738.408 2.87223L737.702 4.74377ZM752.722 14.1291C756.973 18.213 760.266 23.0472 762.604 28.6416L764.45 27.8704C762.009 22.0301 758.561 16.9657 754.108 12.6869L752.722 14.1291ZM762.604 28.6416C764.937 34.2234 766.111 40.4051 766.111 47.2H768.111C768.111 40.1709 766.896 33.7232 764.45 27.8704L762.604 28.6416ZM766.111 47.2C766.111 53.9947 764.937 60.2211 762.602 65.8912L764.452 66.6527C766.896 60.7176 768.111 54.2293 768.111 47.2H766.111ZM762.598 65.903C760.344 71.5791 757.093 76.4954 752.843 80.6619L754.243 82.0901C758.697 77.7232 762.102 72.5702 764.456 66.641L762.598 65.903ZM752.836 80.6689C748.669 84.836 743.706 88.0916 737.935 90.4334L738.687 92.2866C744.692 89.8497 749.884 86.4493 754.25 82.0831L752.836 80.6689ZM737.947 90.4288C732.186 92.6827 725.869 93.816 718.983 93.816V95.816C726.092 95.816 732.66 94.6453 738.675 92.2912L737.947 90.4288ZM718.983 93.816C712.01 93.816 705.65 92.6822 699.891 90.4288L699.163 92.2912C705.18 94.6458 711.791 95.816 718.983 95.816V93.816ZM699.903 90.4334C694.131 88.091 689.122 84.8334 684.867 80.6619L683.467 82.0901C687.916 86.4519 693.147 89.8504 699.151 92.2866L699.903 90.4334ZM684.874 80.6689C680.705 76.4993 677.449 71.5768 675.108 65.8912L673.258 66.6527C675.696 72.5725 679.096 77.7193 683.46 82.0831L684.874 80.6689ZM675.112 65.903C672.86 60.2297 671.727 53.9992 671.727 47.2H669.727C669.727 54.2248 670.898 60.709 673.254 66.641L675.112 65.903ZM780.972 2.39999V1.39999H779.972V2.39999H780.972ZM803.372 2.39999H804.372V1.39999H803.372V2.39999ZM803.372 92V93H804.372V92H803.372ZM780.972 92H779.972V93H780.972V92ZM833.836 2.39999V1.39999H833.378L833.079 1.74714L833.836 2.39999ZM859.18 2.39999L859.936 3.05457L861.369 1.39999H859.18V2.39999ZM822.828 44.384L822.072 43.7294L821.526 44.3602L822.049 45.0105L822.828 44.384ZM861.1 92V93H863.187L861.879 91.3735L861.1 92ZM834.86 92L834.081 92.6265L834.381 93H834.86V92ZM797.1 45.024L796.343 44.3711L795.799 45.0017L796.321 45.6505L797.1 45.024ZM780.972 3.39999H803.372V1.39999H780.972V3.39999ZM802.372 2.39999V92H804.372V2.39999H802.372ZM803.372 91H780.972V93H803.372V91ZM781.972 92V2.39999H779.972V92H781.972ZM833.836 3.39999H859.18V1.39999H833.836V3.39999ZM858.424 1.74541L822.072 43.7294L823.584 45.0386L859.936 3.05457L858.424 1.74541ZM822.049 45.0105L860.321 92.6265L861.879 91.3735L823.607 43.7575L822.049 45.0105ZM861.1 91H834.86V93H861.1V91ZM835.639 91.3735L797.879 44.3975L796.321 45.6505L834.081 92.6265L835.639 91.3735ZM797.857 45.6768L834.593 3.05284L833.079 1.74714L796.343 44.3711L797.857 45.6768Z" fill="white" mask="url(#path-1-outside-1_72_61)"/>
</svg>
